G04 DipTrace 2.4.0.2*
%INESPixelStick.GTL*%
%MOIN*%
%ADD13C,0.02*%
%ADD14C,0.015*%
%ADD15C,0.13*%
%ADD18C,0.04*%
%ADD20R,0.0591X0.0591*%
%ADD21C,0.0591*%
%ADD22R,0.0531X0.0531*%
%ADD23C,0.0531*%
%ADD24R,0.0591X0.0512*%
%ADD25C,0.1*%
%ADD26C,0.125*%
%ADD27R,0.0669X0.0669*%
%ADD28C,0.0669*%
%ADD29R,0.0512X0.0591*%
%ADD31R,0.0846X0.0374*%
%ADD32R,0.0846X0.128*%
%ADD33R,0.0236X0.0433*%
%FSLAX44Y44*%
G04*
G70*
G90*
G75*
G01*
%LNTop*%
%LPD*%
X11437Y16312D2*
D13*
X11031Y15906D1*
X9845D1*
X11437Y16312D2*
Y18437D1*
Y19437D1*
X12686Y20686D1*
Y21313D1*
X9312Y18312D2*
X9437Y18437D1*
X11437D1*
Y13812D2*
X11562D1*
X10937Y14437D1*
X8312D1*
X7687Y15062D1*
X7562Y14937D1*
Y15001D1*
X6313Y15188D2*
X6439Y15062D1*
X7562D1*
Y15001D1*
X6313Y15188D2*
X6249Y15124D1*
X5312D1*
X9161Y22437D2*
D14*
X8687Y21963D1*
Y21187D1*
X7187Y19687D1*
Y19562D1*
X4628D2*
X5187Y19003D1*
Y17312D1*
X4937Y17062D1*
X4437D1*
Y12437D2*
X5437Y11437D1*
Y8062D1*
X6312Y7187D1*
X6326D1*
X5437Y13562D2*
X5687Y13312D1*
Y9437D1*
X7885Y7239D1*
Y7187D1*
X8161Y22437D2*
X7687Y21963D1*
Y21062D1*
X5937Y19312D1*
Y17437D1*
X4938Y16438D1*
Y16187D1*
X4767Y7187D2*
D15*
Y6420D1*
X5750Y5437D1*
X11625D1*
X12562Y6374D1*
Y7187D1*
X6313Y15936D2*
D13*
X6187Y16062D1*
X5312D1*
Y16187D1*
X4564D2*
Y15810D1*
X4687Y15687D1*
X5187D1*
X5312Y15812D1*
Y16187D1*
X8312Y18312D2*
X7812D1*
X7290Y17790D1*
X7187D1*
X11562Y21314D2*
Y20687D1*
X6313Y15936D2*
X6312Y15937D1*
Y16562D1*
X7562Y16812D2*
X6812D1*
X7562Y13437D2*
X6812D1*
X11562Y22062D2*
D14*
X12686Y22061D1*
X11562Y22062D2*
Y22687D1*
X9312Y19060D2*
X9685D1*
X10168Y19543D1*
X9161Y21437D2*
X9437Y21713D1*
Y21937D1*
X9687Y22187D1*
Y22812D1*
X9812Y22937D1*
X10562D1*
X10687Y22812D1*
Y20062D1*
X10168Y19543D1*
X10161Y22437D2*
Y22286D1*
X9687Y21812D1*
Y20564D1*
X9185Y20062D1*
X8312Y19060D2*
X9185Y19933D1*
Y20062D1*
X4689Y13562D2*
X4564Y13687D1*
Y15124D1*
X11831Y12206D2*
D13*
X9845D1*
Y12531D1*
X12437Y13812D2*
Y12812D1*
X11831Y12206D1*
X8437Y20062D2*
D14*
X8187D1*
X7812Y19687D1*
Y19187D1*
X7562Y18937D1*
X6312D1*
X4562Y21562D2*
X5562Y20562D1*
Y18937D1*
X7161Y21437D2*
X6036Y22562D1*
X4562D1*
X9444Y7187D2*
D15*
X9312Y9562D1*
X6315Y10562D2*
D13*
X7315Y11562D1*
X7562D1*
Y11626D1*
X10437Y13812D2*
X9187D1*
X8687Y13312D1*
Y11937D1*
X8376Y11626D1*
X7562D1*
X9312Y9562D2*
D15*
X7872D1*
X6315Y10562D2*
D13*
X6689Y10188D1*
X7246D1*
X7872Y9562D1*
X11003Y7187D2*
D15*
X11072Y9562D1*
X12512D1*
D18*
X11562Y20687D3*
X6312Y16562D3*
X6812Y13437D3*
Y16812D3*
X4437Y17062D3*
Y12437D3*
X11562Y22687D3*
X6312Y18937D3*
X5562D3*
D20*
X6315Y10562D3*
D21*
X4937D3*
D22*
X11831Y12206D3*
D23*
Y11418D3*
D22*
X11437Y16312D3*
D23*
X12224D3*
D24*
X6313Y15188D3*
Y15936D3*
X11562Y22062D3*
Y21314D3*
D25*
X9312Y9562D3*
X11072D3*
X7872D3*
X12512D3*
D20*
X10437Y13812D3*
D21*
X11437D3*
X12437D3*
X7161Y21437D3*
D20*
Y22437D3*
D21*
X8161Y21437D3*
Y22437D3*
X9161Y21437D3*
Y22437D3*
X10161Y21437D3*
D20*
Y22437D3*
D26*
X12562Y7187D3*
X11003D3*
X9444D3*
X7885D3*
X6326D3*
X4767D3*
D27*
X4562Y20562D3*
D28*
Y21562D3*
Y22562D3*
D24*
X12686Y21313D3*
Y22061D3*
D29*
X5437Y13562D3*
X4689D3*
X8437Y20062D3*
X9185D3*
D24*
X8312Y19060D3*
Y18312D3*
X9312D3*
Y19060D3*
D27*
X12727Y19543D3*
D28*
Y17772D3*
X10168D3*
Y19543D3*
D27*
X7187Y19562D3*
D28*
Y17790D3*
X4628D3*
Y19562D3*
D31*
X7562Y13437D3*
Y12531D3*
Y11626D3*
D32*
X9845Y12531D3*
D31*
X7562Y16812D3*
Y15906D3*
Y15001D3*
D32*
X9845Y15906D3*
D33*
X5312Y16187D3*
X4938D3*
X4564D3*
Y15124D3*
X5312D3*
M02*
