G04 DipTrace 2.4.0.2*
%INESPixelStick.GTO*%
%MOIN*%
%ADD10C,0.0098*%
%ADD19C,0.012*%
%ADD30C,0.0154*%
%ADD70C,0.0062*%
%ADD71C,0.0093*%
%ADD72C,0.0077*%
%FSLAX44Y44*%
G04*
G70*
G90*
G75*
G01*
%LNTopSilk*%
%LPD*%
X4051Y10562D2*
D10*
G02X4051Y10562I1575J0D01*
G01*
X6886Y10680D2*
Y10444D1*
X7004Y10562D2*
X6768D1*
X11831Y10828D2*
G02X11831Y10828I0J984D01*
G01*
X11713Y13072D2*
X11949D1*
X11831Y13190D2*
Y12954D1*
X12815Y16312D2*
G02X12815Y16312I-984J0D01*
G01*
X10571Y16194D2*
Y16430D1*
X10453Y16312D2*
X10689D1*
X5923Y14842D2*
X6703D1*
Y16282D1*
X5923D1*
Y14842D1*
X11952Y22408D2*
X11172D1*
Y20968D1*
X11952D1*
Y22408D1*
X7302Y10502D2*
X13082D1*
Y8622D1*
X7302D1*
Y10502D1*
X9937Y13312D2*
Y14312D1*
X12937D1*
Y13312D2*
Y14312D1*
X9937Y13312D2*
X12937D1*
X6661Y20936D2*
X10662D1*
X6661Y22937D2*
X10662D1*
X6661Y20936D2*
Y22937D1*
X10662Y20936D2*
Y22937D1*
G36*
X6474Y23125D2*
X6786D1*
Y22062D1*
X6474D1*
Y23125D1*
G37*
G36*
X6661D2*
X7600D1*
Y22812D1*
X6661D1*
Y23125D1*
G37*
G36*
X10537D2*
X10849D1*
Y22062D1*
X10537D1*
Y23125D1*
G37*
G36*
X9661D2*
X10599D1*
Y22812D1*
X9661D1*
Y23125D1*
G37*
X13344Y5387D2*
D10*
X3984D1*
Y8387D1*
X13344D1*
Y5387D1*
Y5987D2*
X3984D1*
X4062Y20062D2*
X5062D1*
Y23062D1*
X4062D1*
Y20062D1*
X12296Y20967D2*
X13076D1*
Y22407D1*
X12296D1*
Y20967D1*
X5783Y13172D2*
X4343D1*
Y13952D1*
X5783D1*
Y13172D1*
X8091Y20452D2*
X9531D1*
Y19672D1*
X8091D1*
Y20452D1*
X8702Y19406D2*
X7922D1*
Y17966D1*
X8702D1*
Y19406D1*
X8922Y17966D2*
X9702D1*
Y19406D1*
X8922D1*
Y17966D1*
X10739Y18657D2*
G02X10739Y18657I709J0D01*
G01*
X12353Y17476D2*
X10542D1*
X10267Y18264D2*
Y19051D1*
X10542Y19839D2*
X12235D1*
X12629Y19051D2*
Y18264D1*
X10857Y18657D2*
G02X10857Y18657I590J0D01*
G01*
X5199Y18676D2*
G02X5199Y18676I709J0D01*
G01*
X6813Y17495D2*
X5002D1*
X4726Y18282D2*
Y19070D1*
X5002Y19857D2*
X6695D1*
X7089Y19070D2*
Y18282D1*
X5317Y18676D2*
G02X5317Y18676I590J0D01*
G01*
D30*
X7260Y13820D3*
X8153Y13831D2*
D10*
Y11232D1*
X9255Y13831D2*
Y11232D1*
X8153D2*
X9255D1*
X8153Y13831D2*
X9255D1*
D30*
X7260Y17195D3*
X8153Y17206D2*
D10*
Y14607D1*
X9255Y17206D2*
Y14607D1*
X8153D2*
X9255D1*
X8153Y17206D2*
X9255D1*
D30*
X5581Y16353D3*
X5529Y15813D2*
D10*
X4347D1*
X5529Y15498D2*
X4347D1*
Y15813D2*
Y15498D1*
X5529Y15813D2*
Y15498D1*
X9937Y14312D2*
D19*
Y15062D1*
X11437D1*
Y14312D1*
Y15062D2*
X12937D1*
Y14312D1*
X5660Y12627D2*
D70*
X5641Y12665D1*
X5602Y12704D1*
X5564Y12723D1*
X5488D1*
X5449Y12704D1*
X5411Y12665D1*
X5392Y12627D1*
X5373Y12570D1*
Y12474D1*
X5392Y12417D1*
X5411Y12378D1*
X5449Y12340D1*
X5488Y12321D1*
X5564D1*
X5602Y12340D1*
X5641Y12378D1*
X5660Y12417D1*
X5783Y12646D2*
X5822Y12665D1*
X5879Y12722D1*
Y12321D1*
X10653Y12930D2*
X10634Y12968D1*
X10596Y13007D1*
X10558Y13026D1*
X10481D1*
X10443Y13007D1*
X10405Y12968D1*
X10386Y12930D1*
X10367Y12873D1*
Y12777D1*
X10386Y12720D1*
X10405Y12681D1*
X10443Y12643D1*
X10481Y12624D1*
X10558D1*
X10596Y12643D1*
X10634Y12681D1*
X10653Y12720D1*
X10796Y12930D2*
Y12949D1*
X10815Y12987D1*
X10834Y13006D1*
X10873Y13025D1*
X10949D1*
X10987Y13006D1*
X11006Y12987D1*
X11026Y12949D1*
Y12911D1*
X11006Y12872D1*
X10968Y12815D1*
X10777Y12624D1*
X11045D1*
X10457Y17162D2*
X10438Y17200D1*
X10399Y17238D1*
X10361Y17257D1*
X10285D1*
X10246Y17238D1*
X10208Y17200D1*
X10189Y17162D1*
X10170Y17104D1*
Y17008D1*
X10189Y16951D1*
X10208Y16913D1*
X10246Y16875D1*
X10285Y16855D1*
X10361D1*
X10399Y16875D1*
X10438Y16913D1*
X10457Y16951D1*
X10619Y17257D2*
X10829D1*
X10714Y17104D1*
X10772D1*
X10810Y17085D1*
X10829Y17066D1*
X10848Y17008D1*
Y16970D1*
X10829Y16913D1*
X10791Y16874D1*
X10733Y16855D1*
X10676D1*
X10619Y16874D1*
X10600Y16894D1*
X10580Y16932D1*
X6236Y16802D2*
X6217Y16840D1*
X6179Y16879D1*
X6141Y16898D1*
X6064D1*
X6026Y16879D1*
X5988Y16840D1*
X5968Y16802D1*
X5949Y16745D1*
Y16649D1*
X5968Y16592D1*
X5988Y16553D1*
X6026Y16515D1*
X6064Y16496D1*
X6141D1*
X6179Y16515D1*
X6217Y16553D1*
X6236Y16592D1*
X6551Y16496D2*
Y16897D1*
X6360Y16630D1*
X6647D1*
X11495Y22928D2*
X11476Y22966D1*
X11437Y23005D1*
X11399Y23024D1*
X11323D1*
X11284Y23005D1*
X11246Y22966D1*
X11227Y22928D1*
X11208Y22871D1*
Y22775D1*
X11227Y22718D1*
X11246Y22679D1*
X11284Y22641D1*
X11323Y22622D1*
X11399D1*
X11437Y22641D1*
X11476Y22679D1*
X11495Y22718D1*
X11848Y23023D2*
X11657D1*
X11638Y22851D1*
X11657Y22870D1*
X11714Y22890D1*
X11771D1*
X11829Y22870D1*
X11867Y22832D1*
X11886Y22775D1*
Y22737D1*
X11867Y22679D1*
X11829Y22641D1*
X11771Y22622D1*
X11714D1*
X11657Y22641D1*
X11638Y22660D1*
X11618Y22698D1*
X10548Y15648D2*
Y15342D1*
X10529Y15284D1*
X10510Y15265D1*
X10472Y15246D1*
X10433D1*
X10395Y15265D1*
X10376Y15284D1*
X10357Y15342D1*
Y15380D1*
X10672Y15571D2*
X10710Y15590D1*
X10767Y15647D1*
Y15246D1*
X5951Y21331D2*
Y21082D1*
X6353D1*
Y21331D1*
X6142Y21082D2*
Y21235D1*
X6008Y21722D2*
X5970Y21684D1*
X5951Y21627D1*
Y21550D1*
X5970Y21493D1*
X6008Y21454D1*
X6046D1*
X6085Y21474D1*
X6104Y21493D1*
X6123Y21531D1*
X6161Y21646D1*
X6180Y21684D1*
X6200Y21703D1*
X6238Y21722D1*
X6295D1*
X6333Y21684D1*
X6353Y21627D1*
Y21550D1*
X6333Y21493D1*
X6295Y21454D1*
X6161Y21846D2*
Y22018D1*
X6142Y22075D1*
X6123Y22095D1*
X6085Y22114D1*
X6027D1*
X5989Y22095D1*
X5970Y22075D1*
X5951Y22018D1*
Y21846D1*
X6353D1*
X6152Y22237D2*
Y22458D1*
X5951Y22697D2*
X5970Y22639D1*
X6028Y22601D1*
X6123Y22582D1*
X6181D1*
X6276Y22601D1*
X6334Y22639D1*
X6353Y22697D1*
Y22735D1*
X6334Y22792D1*
X6276Y22830D1*
X6181Y22850D1*
X6123D1*
X6028Y22830D1*
X5970Y22792D1*
X5951Y22735D1*
Y22697D1*
X6028Y22830D2*
X6276Y22601D1*
X6028Y22973D2*
X6008Y23012D1*
X5951Y23069D1*
X6353D1*
X12462Y22993D2*
Y22591D1*
X12691D1*
X12815Y22916D2*
X12853Y22935D1*
X12910Y22992D1*
Y22591D1*
X4819Y14346D2*
X4991D1*
X5049Y14366D1*
X5068Y14385D1*
X5087Y14423D1*
Y14461D1*
X5068Y14499D1*
X5049Y14519D1*
X4991Y14538D1*
X4819D1*
Y14136D1*
X4953Y14346D2*
X5087Y14136D1*
X5211Y14461D2*
X5249Y14480D1*
X5307Y14537D1*
Y14136D1*
X7216Y20251D2*
X7388D1*
X7446Y20271D1*
X7465Y20290D1*
X7484Y20328D1*
Y20366D1*
X7465Y20404D1*
X7446Y20424D1*
X7388Y20443D1*
X7216D1*
Y20041D1*
X7350Y20251D2*
X7484Y20041D1*
X7627Y20347D2*
Y20366D1*
X7646Y20404D1*
X7665Y20423D1*
X7704Y20442D1*
X7780D1*
X7818Y20423D1*
X7837Y20404D1*
X7857Y20366D1*
Y20328D1*
X7837Y20289D1*
X7799Y20232D1*
X7608Y20041D1*
X7876D1*
X7967Y17580D2*
X8139D1*
X8197Y17600D1*
X8216Y17619D1*
X8235Y17657D1*
Y17695D1*
X8216Y17733D1*
X8197Y17753D1*
X8139Y17772D1*
X7967D1*
Y17370D1*
X8101Y17580D2*
X8235Y17370D1*
X8397Y17771D2*
X8607D1*
X8493Y17618D1*
X8550D1*
X8588Y17599D1*
X8607Y17580D1*
X8627Y17523D1*
Y17485D1*
X8607Y17427D1*
X8569Y17389D1*
X8512Y17370D1*
X8454D1*
X8397Y17389D1*
X8378Y17408D1*
X8359Y17446D1*
X8958Y17580D2*
X9130D1*
X9187Y17600D1*
X9207Y17619D1*
X9226Y17657D1*
Y17695D1*
X9207Y17733D1*
X9187Y17753D1*
X9130Y17772D1*
X8958D1*
Y17370D1*
X9092Y17580D2*
X9226Y17370D1*
X9541D2*
Y17771D1*
X9349Y17504D1*
X9636D1*
X10550Y20272D2*
X10722D1*
X10780Y20292D1*
X10799Y20311D1*
X10818Y20349D1*
Y20387D1*
X10799Y20425D1*
X10780Y20445D1*
X10722Y20464D1*
X10550D1*
Y20062D1*
X10684Y20272D2*
X10818Y20062D1*
X11190Y20464D2*
X10942D1*
Y20062D1*
X11190D1*
X10942Y20272D2*
X11095D1*
X11582Y20406D2*
X11544Y20445D1*
X11486Y20464D1*
X11410D1*
X11352Y20445D1*
X11314Y20406D1*
Y20368D1*
X11333Y20330D1*
X11352Y20311D1*
X11390Y20292D1*
X11505Y20253D1*
X11544Y20234D1*
X11563Y20215D1*
X11582Y20177D1*
Y20119D1*
X11544Y20081D1*
X11486Y20062D1*
X11410D1*
X11352Y20081D1*
X11314Y20119D1*
X11954Y20464D2*
X11705D1*
Y20062D1*
X11954D1*
X11705Y20272D2*
X11858D1*
X12211Y20464D2*
Y20062D1*
X12077Y20464D2*
X12345D1*
X5158Y20272D2*
X5330D1*
X5387Y20291D1*
X5407Y20310D1*
X5426Y20348D1*
Y20406D1*
X5407Y20444D1*
X5387Y20463D1*
X5330Y20482D1*
X5158D1*
Y20081D1*
X5549Y20291D2*
X5721D1*
X5779Y20310D1*
X5798Y20329D1*
X5817Y20367D1*
Y20406D1*
X5798Y20444D1*
X5779Y20463D1*
X5721Y20482D1*
X5549D1*
Y20081D1*
X5683Y20291D2*
X5817Y20081D1*
X6056Y20482D2*
X6017Y20463D1*
X5979Y20425D1*
X5960Y20387D1*
X5941Y20329D1*
Y20234D1*
X5960Y20176D1*
X5979Y20138D1*
X6017Y20100D1*
X6056Y20081D1*
X6132D1*
X6170Y20100D1*
X6209Y20138D1*
X6228Y20176D1*
X6247Y20234D1*
Y20329D1*
X6228Y20387D1*
X6209Y20425D1*
X6170Y20463D1*
X6132Y20482D1*
X6056D1*
X6657Y20387D2*
X6638Y20425D1*
X6600Y20463D1*
X6562Y20482D1*
X6485D1*
X6447Y20463D1*
X6409Y20425D1*
X6389Y20387D1*
X6370Y20329D1*
Y20234D1*
X6389Y20176D1*
X6409Y20138D1*
X6447Y20100D1*
X6485Y20081D1*
X6562D1*
X6600Y20100D1*
X6638Y20138D1*
X6657Y20176D1*
Y20234D1*
X6562D1*
X8460Y11108D2*
Y10821D1*
X8479Y10764D1*
X8518Y10726D1*
X8575Y10706D1*
X8613D1*
X8671Y10726D1*
X8709Y10764D1*
X8728Y10821D1*
Y11108D1*
X8851Y11031D2*
X8890Y11051D1*
X8947Y11108D1*
Y10706D1*
X8493Y12363D2*
Y12172D1*
X8665Y12153D1*
X8646Y12172D1*
X8627Y12230D1*
Y12287D1*
X8646Y12344D1*
X8684Y12383D1*
X8742Y12402D1*
X8780D1*
X8837Y12383D1*
X8876Y12344D1*
X8895Y12287D1*
Y12230D1*
X8876Y12172D1*
X8856Y12153D1*
X8818Y12134D1*
X8493Y12525D2*
X8895Y12678D1*
X8493Y12831D1*
X8374Y14483D2*
Y14196D1*
X8393Y14139D1*
X8432Y14101D1*
X8489Y14081D1*
X8527D1*
X8585Y14101D1*
X8623Y14139D1*
X8642Y14196D1*
Y14483D1*
X8785Y14387D2*
Y14406D1*
X8804Y14445D1*
X8823Y14464D1*
X8861Y14483D1*
X8938D1*
X8976Y14464D1*
X8995Y14445D1*
X9014Y14406D1*
Y14368D1*
X8995Y14330D1*
X8957Y14273D1*
X8765Y14081D1*
X9033D1*
X8493Y15395D2*
Y15605D1*
X8646Y15491D1*
Y15548D1*
X8665Y15586D1*
X8684Y15605D1*
X8742Y15625D1*
X8780D1*
X8837Y15605D1*
X8876Y15567D1*
X8895Y15510D1*
Y15452D1*
X8876Y15395D1*
X8856Y15376D1*
X8818Y15357D1*
X8856Y15767D2*
X8876Y15748D1*
X8895Y15767D1*
X8876Y15787D1*
X8856Y15767D1*
X8493Y15949D2*
Y16159D1*
X8646Y16044D1*
Y16102D1*
X8665Y16140D1*
X8684Y16159D1*
X8742Y16178D1*
X8780D1*
X8837Y16159D1*
X8876Y16121D1*
X8895Y16063D1*
Y16006D1*
X8876Y15949D1*
X8856Y15930D1*
X8818Y15910D1*
X8493Y16302D2*
X8895Y16455D1*
X8493Y16608D1*
X4673Y17016D2*
Y16729D1*
X4692Y16672D1*
X4731Y16634D1*
X4788Y16614D1*
X4826D1*
X4884Y16634D1*
X4922Y16672D1*
X4941Y16729D1*
Y17016D1*
X5103D2*
X5313D1*
X5199Y16863D1*
X5256D1*
X5294Y16844D1*
X5313Y16825D1*
X5333Y16767D1*
Y16729D1*
X5313Y16672D1*
X5275Y16633D1*
X5218Y16614D1*
X5160D1*
X5103Y16633D1*
X5084Y16653D1*
X5065Y16691D1*
X9885Y10665D2*
Y11067D1*
X9732Y10665D1*
X9579Y11067D1*
Y10665D1*
X10315D2*
X10161Y11067D1*
X10008Y10665D1*
X10066Y10799D2*
X10257D1*
X10438Y11067D2*
X10706Y10665D1*
Y11067D2*
X10438Y10665D1*
X10743Y5103D2*
D30*
Y4242D1*
X10313Y4672D2*
X11174D1*
X11688D2*
X12241D1*
X9305Y5103D2*
Y4242D1*
X8875Y4672D2*
X9736D1*
X7625Y5175D2*
Y4170D1*
X7960D1*
X8104Y4219D1*
X8200Y4314D1*
X8247Y4410D1*
X8295Y4553D1*
Y4793D1*
X8247Y4936D1*
X8200Y5031D1*
X8104Y5128D1*
X7960Y5175D1*
X7625D1*
X6967Y4936D2*
X6920Y5031D1*
X6823Y5128D1*
X6728Y5175D1*
X6537D1*
X6441Y5128D1*
X6346Y5031D1*
X6297Y4936D1*
X6250Y4793D1*
Y4553D1*
X6297Y4410D1*
X6346Y4314D1*
X6441Y4219D1*
X6537Y4170D1*
X6728D1*
X6823Y4219D1*
X6920Y4314D1*
X6967Y4410D1*
X5000Y4672D2*
X5552D1*
X10613Y14897D2*
D70*
X10422D1*
X10403Y14725D1*
X10422Y14744D1*
X10480Y14764D1*
X10537D1*
X10594Y14744D1*
X10633Y14706D1*
X10652Y14649D1*
Y14611D1*
X10633Y14553D1*
X10594Y14515D1*
X10537Y14496D1*
X10480D1*
X10422Y14515D1*
X10403Y14534D1*
X10384Y14572D1*
X10775Y14898D2*
X10928Y14496D1*
X11081Y14898D1*
X11774Y14806D2*
X11812Y14825D1*
X11870Y14882D1*
Y14481D1*
X12013Y14787D2*
Y14806D1*
X12032Y14844D1*
X12051Y14863D1*
X12089Y14882D1*
X12166D1*
X12204Y14863D1*
X12223Y14844D1*
X12242Y14806D1*
Y14768D1*
X12223Y14729D1*
X12185Y14672D1*
X11993Y14481D1*
X12261D1*
X12385Y14883D2*
X12538Y14481D1*
X12691Y14883D1*
X9421Y11681D2*
D71*
X9479Y11711D1*
X9565Y11796D1*
Y11194D1*
X9922Y11796D2*
X9836Y11768D1*
X9779Y11681D1*
X9750Y11538D1*
Y11452D1*
X9779Y11309D1*
X9836Y11222D1*
X9922Y11194D1*
X9979D1*
X10066Y11222D1*
X10123Y11309D1*
X10152Y11452D1*
Y11538D1*
X10123Y11681D1*
X10066Y11768D1*
X9979Y11796D1*
X9922D1*
X10123Y11681D2*
X9779Y11309D1*
X10797Y11194D2*
X10567Y11797D1*
X10337Y11194D1*
X10423Y11395D2*
X10711D1*
X5767Y21568D2*
D72*
X5265D1*
X5767Y21736D2*
Y21401D1*
X5528Y22736D2*
Y22521D1*
X5552Y22449D1*
X5576Y22425D1*
X5624Y22401D1*
X5672D1*
X5719Y22425D1*
X5744Y22449D1*
X5767Y22521D1*
Y22736D1*
X5265D1*
X5528Y22568D2*
X5265Y22401D1*
X5557Y21016D2*
D71*
Y20684D1*
M02*
