<?xml version="1.0" ?>
<svg xmlns="http://www.w3.org/2000/svg" xmlns:xlink="http://www.w3.org/1999/xlink" version="1.1" width="21.840189999999993mm" height="27.759659999999993mm" viewBox="11.19632 1.231900000000003 21.840189999999993 27.759659999999993">
	<g transform="scale(1,-1)">
		<g>
			<path fill-rule="evenodd" fill="#66cc99" stroke="#555555" stroke-width="0.02" opacity="0.6" d="M 18.068290000011494,28.991560000011493 L 18.068289999999998,28.991560000245457 L 18.068289999999998,30.068519999754542 L 18.068290000011494,30.068519999988506 L 18.068290000245458,30.068520000000003 L 20.34666999975454,30.068520000000003 L 20.346669999988503,30.068519999988506 L 20.34667,30.068519999754542 L 20.34667,28.991560000245457 L 20.346669999988503,28.991560000011493 L 20.34666999975454,28.991559999999996 L 18.068290000245458,28.991559999999996 L 18.068290000011494,28.991560000011493 z"/>
			<path fill-rule="evenodd" fill="#66cc99" stroke="#555555" stroke-width="0.02" opacity="0.6" d="M 23.867110000011493,33.517839999988496 L 23.867110000245532,33.51784 L 26.145489999754467,33.51784 L 26.145489999988506,33.517839999988496 L 26.14549,33.517839999754536 L 26.14549,30.13964000024546 L 26.145489999988502,30.139640000011497 L 26.14548999975454,30.13964 L 23.86711000024546,30.13964 L 23.867110000011497,30.139640000011497 L 23.86711,30.13964000024546 L 23.86711,33.517839999754536 L 23.867110000011493,33.517839999988496 z"/>
			<path fill-rule="evenodd" fill="#66cc99" stroke="#555555" stroke-width="0.02" opacity="0.6" d="M 18.06829000001149,32.3672199999885 L 18.06829000024553,32.36722 L 20.346669999754468,32.36722 L 20.346669999988507,32.3672199999885 L 20.34667,32.36721999975454 L 20.34667,31.290260000245457 L 20.346669999988503,31.290260000011493 L 20.34666999975454,31.290259999999996 L 18.068290000245458,31.290259999999996 L 18.068290000011494,31.290260000011493 L 18.068289999999998,31.290260000245457 L 18.068289999999998,32.36721999975454 L 18.06829000001149,32.3672199999885 z"/>
			<path fill-rule="evenodd" fill="#66cc99" stroke="#555555" stroke-width="0.02" opacity="0.6" d="M 13.096240000011495,33.6334100000115 L 13.09624,33.63341000024547 L 13.09624,35.261549999754536 L 13.096240000011495,35.2615499999885 L 13.096240000245533,35.26155 L 14.523719999754467,35.26155 L 14.523719999988506,35.2615499999885 L 14.52372,35.261549999754536 L 14.52372,33.63341000024547 L 14.523719999988506,33.6334100000115 L 14.523719999754467,33.633410000000005 L 13.096240000245533,33.633410000000005 L 13.096240000011495,33.6334100000115 z"/>
			<path fill-rule="evenodd" fill="#66cc99" stroke="#555555" stroke-width="0.02" opacity="0.6" d="M 11.196320000011495,33.6334100000115 L 11.19632,33.63341000024547 L 11.19632,35.261549999754536 L 11.196320000011495,35.2615499999885 L 11.196320000245533,35.26155 L 12.623799999754468,35.26155 L 12.623799999988506,35.2615499999885 L 12.623800000000001,35.261549999754536 L 12.623800000000001,33.63341000024547 L 12.623799999988506,33.6334100000115 L 12.623799999754468,33.633410000000005 L 11.196320000245533,33.633410000000005 L 11.196320000011495,33.6334100000115 z"/>
			<path fill-rule="evenodd" fill="#66cc99" stroke="#555555" stroke-width="0.02" opacity="0.6" d="M 18.06829000001149,33.5915000000115 L 18.068289999999998,33.59150000024546 L 18.068289999999998,34.66845999975454 L 18.06829000001149,34.6684599999885 L 18.06829000024553,34.66846 L 20.346669999754468,34.66846 L 20.346669999988507,34.6684599999885 L 20.34667,34.66845999975454 L 20.34667,33.59150000024546 L 20.346669999988507,33.5915000000115 L 20.346669999754468,33.591499999999996 L 18.06829000024553,33.591499999999996 L 18.06829000001149,33.5915000000115 z"/>
			<path fill-rule="evenodd" fill="#66cc99" stroke="#555555" stroke-width="0.02" opacity="0.6" d="M 18.06829000001149,37.5640600000115 L 18.068289999999998,37.56406000024546 L 18.068289999999998,38.64101999975453 L 18.06829000001149,38.641019999988494 L 18.06829000024553,38.64102 L 20.346669999754468,38.64102 L 20.346669999988507,38.641019999988494 L 20.34667,38.64101999975453 L 20.34667,37.56406000024546 L 20.346669999988507,37.5640600000115 L 20.346669999754468,37.56406 L 18.06829000024553,37.56406 L 18.06829000001149,37.5640600000115 z"/>
			<path fill-rule="evenodd" fill="#66cc99" stroke="#555555" stroke-width="0.02" opacity="0.6" d="M 13.127990000011495,37.801550000011495 L 13.12799,37.80155000024546 L 13.12799,39.02836999975453 L 13.127990000011495,39.0283699999885 L 13.127990000245534,39.028369999999995 L 13.856969999754465,39.028369999999995 L 13.856969999988504,39.0283699999885 L 13.856969999999999,39.02836999975453 L 13.856969999999999,37.80155000024546 L 13.856969999988504,37.801550000011495 L 13.856969999754465,37.80155 L 13.127990000245534,37.80155 L 13.127990000011495,37.801550000011495 z"/>
			<path fill-rule="evenodd" fill="#66cc99" stroke="#555555" stroke-width="0.02" opacity="0.6" d="M 11.228070000011495,37.801550000011495 L 11.22807,37.80155000024546 L 11.22807,39.02836999975453 L 11.228070000011495,39.0283699999885 L 11.228070000245534,39.028369999999995 L 11.957049999754465,39.028369999999995 L 11.957049999988504,39.0283699999885 L 11.957049999999999,39.02836999975453 L 11.957049999999999,37.80155000024546 L 11.957049999988504,37.801550000011495 L 11.957049999754465,37.80155 L 11.228070000245534,37.80155 L 11.228070000011495,37.801550000011495 z"/>
			<path fill-rule="evenodd" fill="#66cc99" stroke="#555555" stroke-width="0.02" opacity="0.6" d="M 15.220950000011495,37.863780000011495 L 15.22095,37.86378000024546 L 15.22095,39.29125999975454 L 15.220950000011495,39.291259999988505 L 15.220950000245534,39.29126 L 16.84908999975447,39.29126 L 16.849089999988507,39.2912599999885 L 16.84909,39.29125999975454 L 16.84909,37.86378000024546 L 16.849089999988507,37.8637800000115 L 16.84908999975447,37.86378 L 15.220950000245534,37.86378 L 15.220950000011495,37.863780000011495 z"/>
			<path fill-rule="evenodd" fill="#66cc99" stroke="#555555" stroke-width="0.02" opacity="0.6" d="M 18.06829000001149,42.1640000000115 L 18.068289999999998,42.16400000024546 L 18.068289999999998,43.24095999975454 L 18.06829000001149,43.2409599999885 L 18.06829000024553,43.24096 L 20.346669999754468,43.24096 L 20.346669999988507,43.2409599999885 L 20.34667,43.24095999975454 L 20.34667,42.16400000024546 L 20.346669999988507,42.1640000000115 L 20.346669999754468,42.163999999999994 L 18.06829000024553,42.163999999999994 L 18.06829000001149,42.1640000000115 z"/>
			<path fill-rule="evenodd" fill="#66cc99" stroke="#555555" stroke-width="0.02" opacity="0.6" d="M 20.298410000011494,45.798740000011506 L 20.29841,45.798740000245466 L 20.29841,47.22621999975454 L 20.298410000011494,47.2262199999885 L 20.298410000245532,47.226220000000005 L 21.926549999754467,47.226220000000005 L 21.926549999988506,47.2262199999885 L 21.92655,47.22621999975454 L 21.92655,45.798740000245466 L 21.926549999988506,45.798740000011506 L 21.926549999754467,45.79874 L 20.298410000245532,45.79874 L 20.298410000011494,45.798740000011506 z"/>
			<path fill-rule="evenodd" fill="#66cc99" stroke="#555555" stroke-width="0.02" opacity="0.6" d="M 22.838410000011493,47.69866000001151 L 22.83841,47.69866000024547 L 22.83841,49.126139999754535 L 22.838410000011493,49.126139999988496 L 22.83841000024553,49.12614 L 24.46654999975447,49.12614 L 24.46654999998851,49.126139999988496 L 24.46655,49.126139999754535 L 24.46655,47.69866000024547 L 24.46654999998851,47.69866000001151 L 24.46654999975447,47.698660000000004 L 22.83841000024553,47.698660000000004 L 22.838410000011493,47.69866000001151 z"/>
			<path fill-rule="evenodd" fill="#66cc99" stroke="#555555" stroke-width="0.02" opacity="0.6" d="M 20.298410000011494,47.69866000001151 L 20.29841,47.69866000024547 L 20.29841,49.126139999754535 L 20.298410000011494,49.126139999988496 L 20.298410000245532,49.12614 L 21.926549999754467,49.12614 L 21.926549999988506,49.126139999988496 L 21.92655,49.126139999754535 L 21.92655,47.69866000024547 L 21.926549999988506,47.69866000001151 L 21.926549999754467,47.698660000000004 L 20.298410000245532,47.698660000000004 L 20.298410000011494,47.69866000001151 z"/>
			<path fill-rule="evenodd" fill="#66cc99" stroke="#555555" stroke-width="0.02" opacity="0.6" d="M 22.838410000011493,45.798740000011506 L 22.83841,45.798740000245466 L 22.83841,47.22621999975454 L 22.838410000011493,47.2262199999885 L 22.83841000024553,47.226220000000005 L 24.46654999975447,47.226220000000005 L 24.46654999998851,47.2262199999885 L 24.46655,47.22621999975454 L 24.46655,45.798740000245466 L 24.46654999998851,45.798740000011506 L 24.46654999975447,45.79874 L 22.83841000024553,45.79874 L 22.838410000011493,45.798740000011506 z"/>
			<path fill-rule="evenodd" fill="#66cc99" stroke="#555555" stroke-width="0.02" opacity="0.6" d="M 31.40837000001149,55.32120000001151 L 31.408369999999998,55.32120000024547 L 31.408369999999998,56.74867999975453 L 31.40837000001149,56.74867999998849 L 31.40837000024553,56.74867999999999 L 33.03650999975446,56.74867999999999 L 33.036509999988496,56.7486799999885 L 33.03650999999999,56.74867999975446 L 33.03650999999999,55.32120000024554 L 33.036509999988496,55.3212000000115 L 33.03650999975446,55.321200000000005 L 31.40837000024553,55.321200000000005 L 31.40837000001149,55.32120000001151 z"/>
			<path fill-rule="evenodd" fill="#66cc99" stroke="#555555" stroke-width="0.02" opacity="0.6" d="M 31.40837000001149,53.42128000001151 L 31.408369999999998,53.42128000024547 L 31.408369999999998,54.84875999975453 L 31.40837000001149,54.84875999998849 L 31.40837000024553,54.84875999999999 L 33.03650999975446,54.84875999999999 L 33.036509999988496,54.848759999988495 L 33.03650999999999,54.848759999754456 L 33.03650999999999,53.42128000024554 L 33.036509999988496,53.4212800000115 L 33.03650999975446,53.42128 L 31.40837000024553,53.42128 L 31.40837000001149,53.42128000001151 z"/>
			<path fill-rule="evenodd" fill="#66cc99" stroke="#555555" stroke-width="0.02" opacity="0.6" d="M 28.553410000011496,53.42382000001151 L 28.553410000000003,53.42382000024547 L 28.553410000000003,54.85129999975453 L 28.553410000011496,54.85129999998849 L 28.553410000245535,54.851299999999995 L 30.181549999754466,54.851299999999995 L 30.181549999988505,54.85129999998849 L 30.181549999999998,54.85129999975453 L 30.181549999999998,53.42382000024547 L 30.181549999988505,53.42382000001151 L 30.181549999754466,53.423820000000006 L 28.553410000245535,53.423820000000006 L 28.553410000011496,53.42382000001151 z"/>
			<path fill-rule="evenodd" fill="#66cc99" stroke="#555555" stroke-width="0.02" opacity="0.6" d="M 28.553410000011496,55.323740000011504 L 28.553410000000003,55.323740000245465 L 28.553410000000003,56.751219999754525 L 28.553410000011496,56.751219999988486 L 28.553410000245535,56.75121999999999 L 30.181549999754466,56.75121999999999 L 30.181549999988505,56.751219999988486 L 30.181549999999998,56.751219999754525 L 30.181549999999998,55.323740000245465 L 30.181549999988505,55.323740000011504 L 30.181549999754466,55.32374 L 28.553410000245535,55.32374 L 28.553410000011496,55.323740000011504 z"/>
			<path fill-rule="evenodd" fill="#66cc99" stroke="#555555" stroke-width="0.02" opacity="0.6" d="M 22.616160000011494,50.14341000001151 L 22.61616,50.14341000024547 L 22.61616,51.771549999754534 L 22.616160000011494,51.771549999988494 L 22.616160000245532,51.77155 L 24.04363999975447,51.77155 L 24.043639999988507,51.771549999988494 L 24.04364,51.771549999754534 L 24.04364,50.14341000024547 L 24.043639999988507,50.14341000001151 L 24.04363999975447,50.14341 L 22.616160000245532,50.14341 L 22.616160000011494,50.14341000001151 z"/>
			<path fill-rule="evenodd" fill="#66cc99" stroke="#555555" stroke-width="0.02" opacity="0.6" d="M 20.716240000011492,50.14341000001151 L 20.71624,50.14341000024547 L 20.71624,51.771549999754534 L 20.716240000011492,51.771549999988494 L 20.71624000024553,51.77155 L 22.143719999754467,51.77155 L 22.143719999988505,51.771549999988494 L 22.14372,51.771549999754534 L 22.14372,50.14341000024547 L 22.143719999988505,50.14341000001151 L 22.143719999754467,50.14341 L 20.71624000024553,50.14341 L 20.716240000011492,50.14341000001151 z"/>
			<path fill-rule="evenodd" fill="#66cc99" stroke="#555555" stroke-width="0.02" opacity="0.6" d="M 18.06829000001149,39.8627600000115 L 18.068289999999998,39.86276000024546 L 18.068289999999998,40.93971999975454 L 18.06829000001149,40.9397199999885 L 18.06829000024553,40.93972 L 20.346669999754468,40.93972 L 20.346669999988507,40.9397199999885 L 20.34667,40.93971999975454 L 20.34667,39.86276000024546 L 20.346669999988507,39.8627600000115 L 20.346669999754468,39.862759999999994 L 18.06829000024553,39.862759999999994 L 18.06829000001149,39.8627600000115 z"/>
			<path fill-rule="evenodd" fill="#66cc99" stroke="#555555" stroke-width="0.02" opacity="0.6" d="M 15.220950000011495,39.7637000000115 L 15.22095,39.763700000245464 L 15.22095,41.19117999975454 L 15.220950000011495,41.191179999988506 L 15.220950000245534,41.19118 L 16.84908999975447,41.19118 L 16.849089999988507,41.1911799999885 L 16.84909,41.19117999975454 L 16.84909,39.763700000245464 L 16.849089999988507,39.763700000011504 L 16.84908999975447,39.7637 L 15.220950000245534,39.7637 L 15.220950000011495,39.7637000000115 z"/>
			<path fill-rule="evenodd" fill="#66cc99" stroke="#555555" stroke-width="0.02" opacity="0.6" d="M 23.867110000011493,38.7121400000115 L 23.86711,38.71214000024546 L 23.86711,42.09033999975453 L 23.867110000011493,42.090339999988494 L 23.867110000245532,42.09034 L 26.145489999754467,42.09034 L 26.145489999988506,42.090339999988494 L 26.14549,42.09033999975453 L 26.14549,38.71214000024546 L 26.145489999988506,38.7121400000115 L 26.145489999754467,38.71214 L 23.867110000245532,38.71214 L 23.867110000011493,38.7121400000115 z"/>
			<path fill-rule="evenodd" fill="#66cc99" stroke="#555555" stroke-width="0.02" opacity="0.6" d="M 11.228070000011495,40.5015700000115 L 11.22807,40.501570000245465 L 11.22807,41.72838999975453 L 11.228070000011495,41.7283899999885 L 11.228070000245534,41.72839 L 11.957049999754465,41.72839 L 11.957049999988504,41.7283899999885 L 11.957049999999999,41.72838999975453 L 11.957049999999999,40.501570000245465 L 11.957049999988504,40.5015700000115 L 11.957049999754465,40.50157 L 11.228070000245534,40.50157 L 11.228070000011495,40.5015700000115 z"/>
			<path fill-rule="evenodd" fill="#66cc99" stroke="#555555" stroke-width="0.02" opacity="0.6" d="M 13.127990000011495,40.5015700000115 L 13.12799,40.501570000245465 L 13.12799,41.72838999975453 L 13.127990000011495,41.7283899999885 L 13.127990000245534,41.72839 L 13.856969999754465,41.72839 L 13.856969999988504,41.7283899999885 L 13.856969999999999,41.72838999975453 L 13.856969999999999,40.501570000245465 L 13.856969999988504,40.5015700000115 L 13.856969999754465,40.50157 L 13.127990000245534,40.50157 L 13.127990000011495,40.5015700000115 z"/>
			<path fill-rule="evenodd" fill="#66cc99" stroke="#555555" stroke-width="0.02" opacity="0.6" d="M 12.178030000011494,40.5015700000115 L 12.17803,40.501570000245465 L 12.17803,41.72838999975453 L 12.178030000011494,41.7283899999885 L 12.178030000245533,41.72839 L 12.907009999754466,41.72839 L 12.907009999988505,41.7283899999885 L 12.90701,41.72838999975453 L 12.90701,40.501570000245465 L 12.907009999988505,40.5015700000115 L 12.907009999754466,40.50157 L 12.178030000245533,40.50157 L 12.178030000011494,40.5015700000115 z"/>
		</g>
	</g>
	 
</svg>
