<?xml version="1.0" ?>
<svg xmlns="http://www.w3.org/2000/svg" xmlns:xlink="http://www.w3.org/1999/xlink" version="1.1" width="23.10129491356758mm" height="41.61789491326164mm" viewBox="10.457182543369184 -25.013912369892452 23.10129491356758 41.61789491326164">
	<g transform="scale(1,-1)">
		<g>
			<path fill-rule="evenodd" fill="#66cc99" stroke="#555555" stroke-width="0.02" opacity="0.6" d="M 13.759177456936769,18.254979999999996 L 13.751227453224066,18.093153956807523 L 13.727454004661656,17.932886380646227 L 13.688086062249155,17.775720742113627 L 13.633502760792691,17.623170632224255 L 13.564229767323548,17.47670519192867 L 13.480934218637294,17.337734963483076 L 13.384418296401805,17.207598306156328 L 13.275611501709154,17.08754850709837 L 13.155561703472038,16.97874171149999 L 13.025425046873382,16.88222578828267 L 12.886454819056242,16.798930238548007 L 12.739989379283273,16.729657243973882 L 12.587439269805653,16.675073941366524 L 12.430273631570067,16.635705997768312 L 12.27000605558819,16.611932547996805 L 12.108180006227842,16.603982543369185 L 11.94635395680752,16.611932546775932 L 11.786086380646237,16.63570599533834 L 11.628920742113616,16.67507393775085 L 11.476370632224233,16.729657239207317 L 11.32990519192864,16.798930232676465 L 11.190934963483096,16.882225781362692 L 11.060798306156316,16.978741703598203 L 10.940748507098355,17.087548498290857 L 10.831941711499992,17.207598296527962 L 10.735425788282669,17.337734953126617 L 10.652130238548004,17.476705180943764 L 10.582857243973876,17.623170620716742 L 10.528273941366532,17.77572073019431 L 10.488905997768315,17.932886368429926 L 10.465132547996806,18.09315394441182 L 10.457182543369184,18.254979993772167 L 10.465132546775935,18.416806043192473 L 10.488905995338335,18.577073619353744 L 10.528273937750843,18.73423925788636 L 10.582857239207314,18.886789367775755 L 10.652130232676457,19.03325480807134 L 10.735425781362713,19.172225036516938 L 10.831941703598199,19.30236169384368 L 10.940748498290846,19.422411492901627 L 11.060798296527972,19.531218288500014 L 11.190934953126618,19.62773421171733 L 11.329905180943786,19.711029761452007 L 11.476370620716738,19.78030275602612 L 11.628920730194345,19.834886058633476 L 11.786086368429931,19.874254002231684 L 11.946353944411808,19.89802745200319 L 12.108179993772156,19.90597745663081 L 12.270006043192476,19.898027453224067 L 12.43027361935376,19.874254004661662 L 12.58743925788638,19.83488606224915 L 12.739989367775738,19.780302760792694 L 12.886454808071324,19.71102976732355 L 13.025425036516918,19.627734218637297 L 13.155561693843666,19.53121829640181 L 13.275611492901623,19.42241150170916 L 13.384418288500003,19.302361703472044 L 13.480934211717322,19.17222504687339 L 13.564229761451985,19.033254819056246 L 13.633502756026115,18.88678937928328 L 13.688086058633468,18.734239269805684 L 13.727454002231692,18.57707363157007 L 13.751227452003192,18.416806055588204 L 13.759177456936769,18.254979999999996 z"/>
			<path fill-rule="evenodd" fill="#66cc99" stroke="#555555" stroke-width="0.02" opacity="0.6" d="M 33.558477456936764,18.254979999999996 L 33.55052745322406,18.093153956807488 L 33.52675400466166,17.93288638064624 L 33.487386062249165,17.775720742113677 L 33.43280276079269,17.623170632224276 L 33.363529767323556,17.47670519192869 L 33.28023421863733,17.337734963483136 L 33.183718296401835,17.207598306156374 L 33.07491150170916,17.08754850709838 L 32.954861703472034,16.97874171149999 L 32.82472504687335,16.88222578828264 L 32.68575481905623,16.798930238548003 L 32.5392893792833,16.729657243973893 L 32.386739269805695,16.675073941366538 L 32.22957363157011,16.635705997768323 L 32.06930605558819,16.611932547996805 L 31.907480006227832,16.603982543369185 L 31.745653956807523,16.611932546775932 L 31.58538638064627,16.635705995338334 L 31.42822074211366,16.675073937750835 L 31.275670632224273,16.729657239207302 L 31.129205191928655,16.798930232676458 L 30.990234963483072,16.882225781362703 L 30.860098306156345,16.978741703598182 L 30.74004850709834,17.087548498290882 L 30.631241711500024,17.207598296527916 L 30.534725788282724,17.33773495312654 L 30.451430238548017,17.47670518094374 L 30.382157243973918,17.623170620716657 L 30.32757394136653,17.775720730194323 L 30.28820599776831,17.932886368429926 L 30.26443254799679,18.093153944411924 L 30.256482543369184,18.254979993772096 L 30.264432546775943,18.41680604319256 L 30.288205995338334,18.577073619353758 L 30.32757393775083,18.73423925788632 L 30.382157239207306,18.886789367775723 L 30.45143023267644,19.033254808071305 L 30.534725781362667,19.172225036516863 L 30.631241703598157,19.302361693843622 L 30.740048498290836,19.42241149290162 L 30.86009829652796,19.531218288500007 L 30.99023495312665,19.62773421171736 L 31.129205180943767,19.711029761451996 L 31.2756706207167,19.780302756026106 L 31.428220730194298,19.83488605863346 L 31.585386368429887,19.874254002231677 L 31.7456539444118,19.89802745200319 L 31.907479993772156,19.90597745663081 L 32.069306043192476,19.898027453224067 L 32.22957361935373,19.87425400466167 L 32.38673925788633,19.834886062249165 L 32.539289367775716,19.7803027607927 L 32.685754808071344,19.71102976732354 L 32.82472503651692,19.627734218637297 L 32.95486169384365,19.53121829640182 L 33.07491149290165,19.42241150170912 L 33.18371828849996,19.302361703472087 L 33.280234211717264,19.172225046873468 L 33.36352976145197,19.033254819056268 L 33.43280275602607,18.88678937928335 L 33.48738605863347,18.734239269805684 L 33.526754002231684,18.577073631570084 L 33.5505274520032,18.416806055588086 L 33.558477456936764,18.254979999999996 z"/>
			<path fill-rule="evenodd" fill="#66cc99" stroke="#555555" stroke-width="0.02" opacity="0.6" d="M 17.719037456936768,18.254979999999996 L 17.711087453224067,18.093153956807523 L 17.68731400466166,17.932886380646227 L 17.647946062249158,17.775720742113627 L 17.593362760792694,17.623170632224255 L 17.52408976732355,17.47670519192867 L 17.440794218637297,17.337734963483076 L 17.344278296401807,17.207598306156328 L 17.235471501709156,17.08754850709837 L 17.115421703472034,16.97874171149999 L 16.985285046873383,16.88222578828267 L 16.846314819056243,16.798930238548007 L 16.699849379283272,16.729657243973882 L 16.547299269805677,16.675073941366527 L 16.39013363157006,16.63570599776831 L 16.229866055588193,16.611932547996805 L 16.068040006227847,16.603982543369185 L 15.906213956807527,16.611932546775932 L 15.745946380646231,16.63570599533834 L 15.58878074211363,16.67507393775084 L 15.436230632224259,16.729657239207306 L 15.289765191928673,16.798930232676447 L 15.150794963483078,16.882225781362703 L 15.020658306156331,16.978741703598192 L 14.900608507098374,17.087548498290843 L 14.791801711499993,17.207598296527962 L 14.695285788282671,17.337734953126617 L 14.611990238548012,17.476705180943757 L 14.542717243973883,17.623170620716728 L 14.488133941366529,17.775720730194323 L 14.448765997768309,17.93288636842994 L 14.424992547996807,18.093153944411807 L 14.41704254336919,18.254979993772153 L 14.424992546775934,18.416806043192473 L 14.448765995338343,18.577073619353772 L 14.488133937750844,18.734239257886372 L 14.542717239207308,18.886789367775744 L 14.611990232676453,19.03325480807133 L 14.695285781362708,19.172225036516924 L 14.791801703598194,19.30236169384367 L 14.900608498290849,19.422411492901627 L 15.020658296527966,19.531218288500007 L 15.150794953126617,19.62773421171733 L 15.289765180943759,19.71102976145199 L 15.436230620716728,19.780302756026117 L 15.588780730194324,19.83488605863347 L 15.745946368429939,19.87425400223169 L 15.906213944411808,19.89802745200319 L 16.068039993772153,19.90597745663081 L 16.22986604319247,19.898027453224067 L 16.390133619353765,19.87425400466166 L 16.547299257886365,19.834886062249154 L 16.69984936777574,19.780302760792694 L 16.846314808071327,19.71102976732355 L 16.985285036516917,19.627734218637297 L 17.115421693843665,19.53121829640181 L 17.235471492901624,19.42241150170916 L 17.344278288500007,19.302361703472044 L 17.440794211717325,19.17222504687339 L 17.524089761451986,19.033254819056246 L 17.593362756026114,18.88678937928328 L 17.64794605863347,18.734239269805684 L 17.687314002231687,18.57707363157007 L 17.71108745200319,18.416806055588204 L 17.719037456936768,18.254979999999996 z"/>
			<path fill-rule="evenodd" fill="#66cc99" stroke="#555555" stroke-width="0.02" opacity="0.6" d="M 21.67889745693677,18.254979999999996 L 21.670947453224066,18.093153956807523 L 21.647174004661657,17.932886380646227 L 21.607806062249157,17.775720742113627 L 21.553222760792693,17.623170632224255 L 21.483949767323548,17.47670519192867 L 21.400654218637296,17.337734963483076 L 21.304138296401806,17.207598306156328 L 21.195331501709155,17.08754850709837 L 21.07528170347204,16.97874171149999 L 20.945145046873385,16.88222578828267 L 20.806174819056242,16.798930238548007 L 20.659709379283274,16.729657243973882 L 20.507159269805676,16.675073941366527 L 20.349993631570058,16.63570599776831 L 20.189726055588192,16.611932547996805 L 20.027900006227846,16.603982543369185 L 19.86607395680753,16.611932546775932 L 19.705806380646234,16.63570599533834 L 19.548640742113633,16.67507393775084 L 19.396090632224258,16.729657239207306 L 19.249625191928672,16.798930232676447 L 19.11065496348308,16.882225781362703 L 18.980518306156334,16.978741703598192 L 18.86046850709837,17.087548498290843 L 18.75166171149999,17.207598296527962 L 18.655145788282674,17.337734953126617 L 18.571850238548013,17.476705180943757 L 18.502577243973885,17.623170620716728 L 18.44799394136653,17.775720730194323 L 18.408625997768308,17.93288636842994 L 18.384852547996807,18.093153944411807 L 18.376902543369187,18.254979993772153 L 18.384852546775935,18.416806043192473 L 18.408625995338344,18.577073619353772 L 18.447993937750844,18.734239257886372 L 18.50257723920731,18.886789367775744 L 18.571850232676454,19.03325480807133 L 18.655145781362705,19.172225036516924 L 18.751661703598195,19.30236169384367 L 18.86046849829085,19.422411492901627 L 18.980518296527965,19.531218288500007 L 19.11065495312662,19.62773421171733 L 19.24962518094376,19.71102976145199 L 19.396090620716727,19.780302756026117 L 19.548640730194325,19.83488605863347 L 19.70580636842994,19.87425400223169 L 19.86607394441181,19.89802745200319 L 20.027899993772152,19.90597745663081 L 20.189726043192472,19.898027453224067 L 20.349993619353768,19.87425400466166 L 20.507159257886368,19.834886062249154 L 20.65970936777574,19.780302760792694 L 20.806174808071326,19.71102976732355 L 20.94514503651692,19.627734218637297 L 21.075281693843667,19.53121829640181 L 21.195331492901623,19.42241150170916 L 21.304138288500003,19.302361703472044 L 21.400654211717324,19.17222504687339 L 21.483949761451985,19.033254819056246 L 21.553222756026116,18.88678937928328 L 21.607806058633468,18.734239269805684 L 21.647174002231694,18.57707363157007 L 21.670947452003194,18.416806055588204 L 21.67889745693677,18.254979999999996 z"/>
			<path fill-rule="evenodd" fill="#66cc99" stroke="#555555" stroke-width="0.02" opacity="0.6" d="M 29.59861745693677,18.254979999999996 L 29.590667453224068,18.093153956807488 L 29.566894004661666,17.93288638064624 L 29.527526062249166,17.775720742113677 L 29.47294276079269,17.623170632224276 L 29.403669767323557,17.47670519192869 L 29.320374218637333,17.337734963483136 L 29.22385829640184,17.207598306156374 L 29.115051501709164,17.08754850709838 L 28.995001703472038,16.97874171149999 L 28.864865046873348,16.88222578828264 L 28.72589481905623,16.798930238548003 L 28.579429379283297,16.729657243973893 L 28.4268792698057,16.675073941366538 L 28.269713631570113,16.635705997768323 L 28.109446055588197,16.611932547996805 L 27.947620006227833,16.603982543369185 L 27.785793956807524,16.611932546775932 L 27.62552638064627,16.635705995338334 L 27.46836074211366,16.675073937750835 L 27.315810632224274,16.729657239207302 L 27.169345191928656,16.798930232676458 L 27.030374963483073,16.882225781362703 L 26.90023830615635,16.978741703598182 L 26.78018850709834,17.087548498290882 L 26.67138171150003,17.207598296527916 L 26.574865788282725,17.33773495312654 L 26.49157023854802,17.47670518094374 L 26.42229724397392,17.623170620716657 L 26.36771394136653,17.775720730194323 L 26.32834599776831,17.932886368429926 L 26.30457254799679,18.093153944411924 L 26.296622543369185,18.254979993772096 L 26.304572546775944,18.41680604319256 L 26.328345995338335,18.577073619353758 L 26.367713937750832,18.73423925788632 L 26.422297239207307,18.886789367775723 L 26.491570232676445,19.033254808071305 L 26.574865781362668,19.172225036516863 L 26.67138170359816,19.302361693843622 L 26.780188498290837,19.42241149290162 L 26.900238296527963,19.531218288500007 L 27.03037495312665,19.62773421171736 L 27.16934518094377,19.711029761451996 L 27.3158106207167,19.780302756026106 L 27.468360730194302,19.83488605863346 L 27.625526368429888,19.874254002231677 L 27.785793944411804,19.89802745200319 L 27.94761999377216,19.90597745663081 L 28.109446043192477,19.898027453224067 L 28.26971361935373,19.87425400466167 L 28.426879257886334,19.834886062249165 L 28.57942936777572,19.7803027607927 L 28.725894808071345,19.71102976732354 L 28.86486503651692,19.627734218637297 L 28.995001693843644,19.53121829640182 L 29.115051492901653,19.42241150170912 L 29.223858288499965,19.302361703472087 L 29.32037421171727,19.172225046873468 L 29.403669761451972,19.033254819056268 L 29.472942756026075,18.88678937928335 L 29.52752605863347,18.734239269805684 L 29.566894002231685,18.577073631570084 L 29.590667452003206,18.416806055588086 L 29.59861745693677,18.254979999999996 z"/>
			<path fill-rule="evenodd" fill="#66cc99" stroke="#555555" stroke-width="0.02" opacity="0.6" d="M 25.63875745693677,18.254979999999996 L 25.63080745322407,18.093153956807488 L 25.60703400466166,17.93288638064624 L 25.56766606224917,17.775720742113677 L 25.513082760792688,17.623170632224276 L 25.443809767323557,17.47670519192869 L 25.360514218637295,17.337734963483076 L 25.263998296401805,17.207598306156328 L 25.155191501709155,17.08754850709837 L 25.035141703472036,16.97874171149999 L 24.90500504687338,16.88222578828267 L 24.76603481905624,16.798930238548007 L 24.61956937928327,16.729657243973882 L 24.467019269805675,16.675073941366527 L 24.309853631570057,16.63570599776831 L 24.14958605558819,16.611932547996805 L 23.987760006227845,16.603982543369185 L 23.825933956807525,16.611932546775932 L 23.66566638064623,16.63570599533834 L 23.50850074211363,16.67507393775084 L 23.355950632224257,16.729657239207306 L 23.20948519192867,16.798930232676447 L 23.070514963483078,16.882225781362703 L 22.94037830615633,16.978741703598192 L 22.82032850709837,17.087548498290843 L 22.71152171149999,17.207598296527962 L 22.61500578828267,17.337734953126617 L 22.531710238548012,17.476705180943757 L 22.46243724397388,17.623170620716728 L 22.40785394136653,17.775720730194323 L 22.368485997768307,17.93288636842994 L 22.344712547996807,18.093153944411807 L 22.336762543369186,18.254979993772153 L 22.344712546775934,18.416806043192473 L 22.368485995338343,18.577073619353772 L 22.407853937750843,18.734239257886372 L 22.462437239207308,18.886789367775744 L 22.531710232676453,19.03325480807133 L 22.615005781362704,19.172225036516924 L 22.711521703598194,19.30236169384367 L 22.82032849829085,19.422411492901627 L 22.940378296527964,19.531218288500007 L 23.070514953126615,19.62773421171733 L 23.20948518094376,19.71102976145199 L 23.355950620716726,19.780302756026117 L 23.50850073019432,19.83488605863347 L 23.66566636842994,19.87425400223169 L 23.82593394441181,19.89802745200319 L 23.98775999377215,19.90597745663081 L 24.14958604319247,19.898027453224067 L 24.309853619353767,19.87425400466166 L 24.467019257886367,19.834886062249154 L 24.61956936777574,19.780302760792694 L 24.766034808071325,19.71102976732355 L 24.90500503651692,19.627734218637297 L 25.035141693843666,19.53121829640181 L 25.155191492901622,19.42241150170916 L 25.2639982885,19.302361703472044 L 25.360514211717323,19.17222504687339 L 25.443809761451977,19.033254819056268 L 25.513082756026076,18.88678937928335 L 25.567666058633463,18.734239269805684 L 25.607034002231686,18.577073631570084 L 25.630807452003207,18.416806055588086 L 25.63875745693677,18.254979999999996 z"/>
			<path fill-rule="evenodd" fill="#66cc99" stroke="#555555" stroke-width="0.02" opacity="0.6" d="M 13.35404745693677,26.827479999999984 L 13.3501274999303,26.747687442063526 L 13.338405379933791,26.668663323851227 L 13.318993987064811,26.59116869704826 L 13.292080263648018,26.515949877273577 L 13.25792340355246,26.443731262880416 L 13.216852356012913,26.37520835860416 L 13.169262657668908,26.31104107747138 L 13.115612623330689,26.25184738547682 L 13.056418932156983,26.198197350232896 L 12.992251651752346,26.15060765090708 L 12.923728748104459,26.10953660231908 L 12.851510134234008,26.07537974111858 L 12.77629131487108,26.04846601655088 L 12.698796688365153,26.029054622496197 L 12.619772570332039,26.017332501290554 L 12.539980006227879,26.013412543369185 L 12.460187442063491,26.0173325000697 L 12.381163323851187,26.02905462006622 L 12.30366869704817,26.048466012935215 L 12.228449877273553,26.075379736351987 L 12.156231262880523,26.10953659644749 L 12.087708358604194,26.150607643987065 L 12.023541077471469,26.19819734233102 L 11.964347385476787,26.251847376669343 L 11.910697350232853,26.311041067843053 L 11.86310765090703,26.375208348247725 L 11.822036602319079,26.443731251895546 L 11.787879741118545,26.515949865766064 L 11.760966016550885,26.591168685128906 L 11.741554622496192,26.668663311634873 L 11.729832501290566,26.747687429667838 L 11.725912543369184,26.827479993772194 L 11.729832500069696,26.90727255793646 L 11.741554620066214,26.98629667614879 L 11.7609660129352,27.06379130295178 L 11.787879736351991,27.13901012272645 L 11.822036596447534,27.211228737119573 L 11.863107643987075,27.279751641395823 L 11.910697342331092,27.343918922528616 L 11.964347376669325,27.4031126145232 L 12.023541067843023,27.456762649767114 L 12.087708348247684,27.50435234909294 L 12.156231251895477,27.54542339768088 L 12.228449865766049,27.579580258881442 L 12.30366868512894,27.606493983449123 L 12.381163311634845,27.625905377503802 L 12.460187429667961,27.637627498709445 L 12.53997999377212,27.64154745663081 L 12.619772557936507,27.6376274999303 L 12.698796676148813,27.62590537993378 L 12.77629130295181,27.606493987064788 L 12.851510122726376,27.57958026364804 L 12.92372873711954,27.54542340355248 L 12.992251641395766,27.50435235601296 L 13.056418922528518,27.456762657668982 L 13.115612614523204,27.40311262333066 L 13.169262649767145,27.343918932156953 L 13.216852349092983,27.279751651752257 L 13.257923397680923,27.21122874810446 L 13.29208025888144,27.13901013423396 L 13.31899398344911,27.06379131487111 L 13.338405377503806,26.986296688365126 L 13.35012749870943,26.907272570332196 L 13.35404745693677,26.827479999999984 z"/>
			<path fill-rule="evenodd" fill="#66cc99" stroke="#555555" stroke-width="0.02" opacity="0.6" d="M 15.226032539999999,26.013412540000015 L 15.226032539999999,27.641547453764648 L 16.85416745376462,27.641547459999984 L 16.854167459999996,26.01341254623535 L 15.226032539999999,26.013412540000015 z"/>
			<path fill-rule="evenodd" fill="#66cc99" stroke="#555555" stroke-width="0.02" opacity="0.6" d="M 24.985977456936766,24.287479999999995 L 24.979556302505642,24.156774398862154 L 24.960354678133633,24.02732755788634 L 24.928557505654187,23.900386127141946 L 24.88447100922035,23.77717262200016 L 24.82851976589294,23.65887365587092 L 24.76124261673123,23.54662851246679 L 24.683287477459135,23.441518173878286 L 24.595405098682434,23.34455491012511 L 24.498441835750057,23.256672530442643 L 24.393331497889672,23.17871739018874 L 24.28108635511398,23.111440239978613 L 24.16278738950735,23.055488995546217 L 24.03957388477738,23.011402497961505 L 23.91263245432993,22.979605324296333 L 23.78318561353355,22.96040369871523 L 23.65248000622784,22.953982543369186 L 23.521774398862156,22.96040369749436 L 23.392327557886343,22.97960532186637 L 23.26538612714195,23.011402494345813 L 23.142172622000157,23.055488990779647 L 23.023873655870922,23.11144023410706 L 22.91162851246679,23.17871738326877 L 22.80651817387829,23.256672522540864 L 22.709554910125114,23.34455490131756 L 22.621672530442645,23.441518164249942 L 22.54371739018874,23.546628502110323 L 22.476440239978615,23.658873644886018 L 22.420488995546215,23.77717261049265 L 22.376402497961504,23.90038611522262 L 22.34460532429633,24.02732754567007 L 22.325403698715228,24.15677438646645 L 22.318982543369188,24.287479993772163 L 22.32540369749436,24.418185601137843 L 22.344605321866368,24.547632442113656 L 22.376402494345815,24.67457387285805 L 22.42048899077965,24.797787377999843 L 22.47644023410706,24.91608634412908 L 22.543717383268767,25.02833148753321 L 22.621672522540862,25.133441826121715 L 22.709554901317563,25.23040508987489 L 22.806518164249944,25.318287469557358 L 22.911628502110325,25.39624260981126 L 23.02387364488604,25.463519760021402 L 23.14217261049258,25.519471004453752 L 23.265386115222565,25.563557502038478 L 23.392327545670053,25.595354675703657 L 23.521774386466564,25.614556301284782 L 23.652479993772104,25.62097745663082 L 23.78318560113793,25.614556302505637 L 23.912632442113583,25.595354678133653 L 24.03957387285807,25.563557505654178 L 24.162787377999816,25.51947100922035 L 24.28108634412905,25.463519765892958 L 24.393331487533207,25.396242616731232 L 24.49844182612171,25.31828747745914 L 24.595405089874884,25.23040509868244 L 24.683287469557353,25.133441835750062 L 24.761242609811255,25.028331497889685 L 24.828519760021383,24.916086355113986 L 24.884471004453783,24.79778738950736 L 24.928557502038494,24.674573884777384 L 24.960354675703663,24.54763245432994 L 24.97955630128477,24.41818561353356 L 24.985977456936766,24.287479999999995 z"/>
			<path fill-rule="evenodd" fill="#66cc99" stroke="#555555" stroke-width="0.02" opacity="0.6" d="M 33.11397745693677,24.287479999999995 L 33.10755630250565,24.15677439886212 L 33.08835467813365,24.027327557886412 L 33.056557505654176,23.90038612714192 L 33.012471009220356,23.77717262200018 L 32.956519765892956,23.65887365587094 L 32.88924261673128,23.54662851246687 L 32.811287477459196,23.441518173878368 L 32.7234050986824,23.344554910125076 L 32.626441835750065,23.256672530442643 L 32.52133149788966,23.178717390188726 L 32.40908635511397,23.11144023997861 L 32.290787389507365,23.055488995546227 L 32.167573884777404,23.011402497961512 L 32.04063245432997,22.979605324296344 L 31.911185613533554,22.96040369871523 L 31.780480006227833,22.953982543369186 L 31.64977439886216,22.96040369749436 L 31.520327557886393,22.97960532186636 L 31.393386127141984,23.01140249434581 L 31.270172622000192,23.055488990779637 L 31.1518736558709,23.111440234107068 L 31.039628512466773,23.178717383268776 L 30.934518173878274,23.256672522540875 L 30.837554910125107,23.34455490131757 L 30.749672530442698,23.441518164249878 L 30.671717390188782,23.546628502110266 L 30.604440239978594,23.65887364488604 L 30.54848899554625,23.777172610492578 L 30.504402497961518,23.900386115222567 L 30.47260532429634,24.027327545670055 L 30.453403698715213,24.156774386466566 L 30.446982543369185,24.287479993772106 L 30.453403697494366,24.418185601137935 L 30.47260532186635,24.547632442113585 L 30.504402494345825,24.674573872858076 L 30.548488990779646,24.79778737799982 L 30.604440234107045,24.91608634412906 L 30.671717383268717,25.02833148753313 L 30.749672522540802,25.133441826121633 L 30.8375549013176,25.230405089874925 L 30.934518164249937,25.318287469557358 L 31.03962850211034,25.396242609811274 L 31.151873644886006,25.46351976002138 L 31.270172610492583,25.519471004453752 L 31.393386115222597,25.56355750203849 L 31.520327545670018,25.595354675703646 L 31.64977438646656,25.614556301284782 L 31.780479993772104,25.62097745663082 L 31.91118560113793,25.614556302505637 L 32.04063244211354,25.595354678133656 L 32.1675738728581,25.56355750565417 L 32.2907873779998,25.519471009220357 L 32.40908634412903,25.46351976589297 L 32.521331487533224,25.396242616731225 L 32.62644182612172,25.31828747745913 L 32.723405089874895,25.230405098682436 L 32.8112874695573,25.133441835750126 L 32.88924260981121,25.028331497889738 L 32.9565197600214,24.916086355113965 L 33.01247100445375,24.79778738950743 L 33.05655750203848,24.674573884777438 L 33.08835467570366,24.547632454329953 L 33.10755630128479,24.418185613533442 L 33.11397745693677,24.287479999999995 z"/>
			<path fill-rule="evenodd" fill="#66cc99" stroke="#555555" stroke-width="0.02" opacity="0.6" d="M 21.328377456936767,24.287479999999995 L 21.321956302505644,24.156774398862154 L 21.30275467813363,24.02732755788634 L 21.270957505654184,23.900386127141946 L 21.226871009220346,23.77717262200016 L 21.17091976589294,23.65887365587092 L 21.10364261673123,23.54662851246679 L 21.025687477459137,23.441518173878286 L 20.937805098682432,23.34455491012511 L 20.840841835750055,23.256672530442643 L 20.735731497889677,23.17871739018874 L 20.62348635511398,23.111440239978613 L 20.50518738950735,23.055488995546217 L 20.381973884777377,23.011402497961505 L 20.255032454329932,22.979605324296333 L 20.125585613533552,22.96040369871523 L 19.994880006227838,22.953982543369186 L 19.864174398862154,22.96040369749436 L 19.734727557886345,22.97960532186637 L 19.60778612714195,23.011402494345813 L 19.484572622000154,23.055488990779647 L 19.36627365587092,23.11144023410706 L 19.25402851246679,23.17871738326877 L 19.148918173878286,23.256672522540864 L 19.05195491012511,23.34455490131756 L 18.964072530442643,23.441518164249942 L 18.88611739018874,23.546628502110323 L 18.818840239978613,23.658873644886018 L 18.762888995546213,23.77717261049265 L 18.718802497961505,23.90038611522262 L 18.687005324296333,24.02732754567007 L 18.66780369871523,24.15677438646645 L 18.661382543369186,24.287479993772163 L 18.667803697494357,24.418185601137843 L 18.687005321866366,24.547632442113656 L 18.718802494345812,24.67457387285805 L 18.76288899077965,24.797787377999843 L 18.81884023410706,24.91608634412908 L 18.88611738326877,25.02833148753321 L 18.964072522540864,25.133441826121715 L 19.051954901317565,25.23040508987489 L 19.14891816424994,25.318287469557358 L 19.254028502110323,25.39624260981126 L 19.36627364488604,25.463519760021402 L 19.484572610492577,25.519471004453752 L 19.607786115222567,25.563557502038478 L 19.73472754567005,25.595354675703657 L 19.864174386466562,25.614556301284782 L 19.994879993772102,25.62097745663082 L 20.12558560113793,25.614556302505637 L 20.25503244211358,25.595354678133653 L 20.381973872858072,25.563557505654178 L 20.505187377999817,25.51947100922035 L 20.623486344129052,25.463519765892958 L 20.735731487533204,25.396242616731232 L 20.840841826121707,25.31828747745914 L 20.93780508987488,25.23040509868244 L 21.025687469557354,25.133441835750062 L 21.103642609811256,25.028331497889685 L 21.170919760021384,24.916086355113986 L 21.22687100445378,24.79778738950736 L 21.270957502038492,24.674573884777384 L 21.302754675703664,24.54763245432994 L 21.321956301284768,24.41818561353356 L 21.328377456936767,24.287479999999995 z"/>
			<path fill-rule="evenodd" fill="#66cc99" stroke="#555555" stroke-width="0.02" opacity="0.6" d="M 29.456377456936767,24.287479999999995 L 29.449956302505644,24.15677439886212 L 29.430754678133646,24.027327557886412 L 29.398957505654174,23.90038612714192 L 29.354871009220354,23.77717262200018 L 29.29891976589295,23.65887365587094 L 29.23164261673128,23.54662851246687 L 29.153687477459197,23.441518173878368 L 29.065805098682397,23.344554910125076 L 28.96884183575006,23.256672530442643 L 28.863731497889656,23.178717390188726 L 28.751486355113972,23.11144023997861 L 28.633187389507366,23.055488995546227 L 28.5099738847774,23.011402497961512 L 28.38303245432997,22.979605324296344 L 28.253585613533552,22.96040369871523 L 28.12288000622783,22.953982543369186 L 27.992174398862158,22.96040369749436 L 27.86272755788639,22.97960532186636 L 27.735786127141978,23.01140249434581 L 27.61257262200019,23.055488990779637 L 27.4942736558709,23.111440234107068 L 27.38202851246677,23.178717383268776 L 27.276918173878272,23.256672522540875 L 27.1799549101251,23.34455490131757 L 27.092072530442696,23.441518164249878 L 27.01411739018878,23.546628502110266 L 26.94684023997859,23.65887364488604 L 26.89088899554625,23.777172610492578 L 26.846802497961516,23.900386115222567 L 26.815005324296337,24.027327545670055 L 26.79580369871521,24.156774386466566 L 26.789382543369182,24.287479993772106 L 26.795803697494364,24.418185601137935 L 26.815005321866348,24.547632442113585 L 26.846802494345823,24.674573872858076 L 26.890888990779644,24.79778737799982 L 26.946840234107043,24.91608634412906 L 27.014117383268715,25.02833148753313 L 27.0920725225408,25.133441826121633 L 27.179954901317597,25.230405089874925 L 27.276918164249935,25.318287469557358 L 27.382028502110337,25.396242609811274 L 27.494273644886,25.46351976002138 L 27.612572610492577,25.519471004453752 L 27.735786115222595,25.56355750203849 L 27.862727545670012,25.595354675703646 L 27.992174386466555,25.614556301284782 L 28.122879993772102,25.62097745663082 L 28.253585601137928,25.614556302505637 L 28.38303244211354,25.595354678133656 L 28.509973872858094,25.56355750565417 L 28.6331873779998,25.519471009220357 L 28.751486344129027,25.46351976589297 L 28.86373148753322,25.396242616731225 L 28.968841826121718,25.31828747745913 L 29.065805089874893,25.230405098682436 L 29.153687469557294,25.133441835750126 L 29.23164260981121,25.028331497889738 L 29.2989197600214,24.916086355113965 L 29.354871004453745,24.79778738950743 L 29.398957502038478,24.674573884777438 L 29.43075467570366,24.547632454329953 L 29.449956301284786,24.418185613533442 L 29.456377456936767,24.287479999999995 z"/>
			<path fill-rule="evenodd" fill="#66cc99" stroke="#555555" stroke-width="0.02" opacity="0.6" d="M 29.311602540000003,30.264102540000017 L 29.311602540000003,31.742377453764618 L 30.789877453764614,31.742377459999986 L 30.789877459999985,30.264102546235385 L 29.311602540000003,30.264102540000017 z"/>
			<path fill-rule="evenodd" fill="#66cc99" stroke="#555555" stroke-width="0.02" opacity="0.6" d="M 18.068292539999995,31.290262540000004 L 18.068292539999995,32.36721745376465 L 20.346667453764628,32.36721746 L 20.34666745999999,31.29026254623535 L 18.068292539999995,31.290262540000004 z"/>
			<path fill-rule="evenodd" fill="#66cc99" stroke="#555555" stroke-width="0.02" opacity="0.6" d="M 23.86711254,30.139642540000008 L 23.86711254,33.51783745376465 L 26.145487453764613,33.517837459999996 L 26.14548745999999,30.13964254623539 L 23.86711254,30.139642540000008 z"/>
			<path fill-rule="evenodd" fill="#66cc99" stroke="#555555" stroke-width="0.02" opacity="0.6" d="M 32.404047456936766,35.08247999999998 L 32.400127499930306,35.002687442063554 L 32.388405379933786,34.92366332385121 L 32.36899398706479,34.84616869704818 L 32.342080263648036,34.77094987727362 L 32.307923403552486,34.69873126288048 L 32.26685235601295,34.630208358604214 L 32.21926265766896,34.56604107747146 L 32.1656126233306,34.506847385476725 L 32.106418932156984,34.45319735023289 L 32.04225165175232,34.405607650907065 L 31.9737287481045,34.3645366023191 L 31.901510134234005,34.330379741118584 L 31.826291314871053,34.30346601655087 L 31.748796688365193,34.28405462249621 L 31.669772570332047,34.27233250129055 L 31.58998000622788,34.26841254336919 L 31.510187442063497,34.272332500069695 L 31.43116332385121,34.284054620066215 L 31.35366869704819,34.30346601293521 L 31.278449877273626,34.33037973635196 L 31.206231262880483,34.364536596447515 L 31.137708358604215,34.405607643987054 L 31.07354107747146,34.45319734233102 L 31.014347385476725,34.50684737666939 L 30.960697350232895,34.56604106784301 L 30.91310765090707,34.63020834824766 L 30.872036602319103,34.6987312518955 L 30.83787974111858,34.77094986576599 L 30.810966016550868,34.846168685128944 L 30.791554622496207,34.923663311634805 L 30.779832501290553,35.00268742966795 L 30.775912543369184,35.08247999377212 L 30.7798325000697,35.162272557936504 L 30.79155462006621,35.241296676148785 L 30.81096601293521,35.318791302951816 L 30.837879736351958,35.39401012272637 L 30.872036596447515,35.466228737119515 L 30.913107643987054,35.534751641395786 L 30.96069734233103,35.59891892252853 L 31.014347376669395,35.65811261452327 L 31.073541067843014,35.7117626497671 L 31.13770834824767,35.75935234909293 L 31.2062312518955,35.800423397680895 L 31.278449865765992,35.83458025888142 L 31.353668685128945,35.86149398344913 L 31.431163311634805,35.88090537750379 L 31.51018742966795,35.892627498709444 L 31.58997999377212,35.89654745663081 L 31.6697725579365,35.8926274999303 L 31.74879667614879,35.880905379933786 L 31.82629130295181,35.86149398706479 L 31.901510122726368,35.834580263648036 L 31.97372873711951,35.800423403552486 L 32.04225164139579,35.75935235601295 L 32.10641892252853,35.71176265766897 L 32.165612614523276,35.6581126233306 L 32.2192626497671,35.59891893215699 L 32.26685234909293,35.53475165175233 L 32.307923397680895,35.466228748104506 L 32.34208025888142,35.39401013423401 L 32.36899398344913,35.318791314871056 L 32.388405377503794,35.24129668836519 L 32.400127498709445,35.16227257033205 L 32.404047456936766,35.08247999999998 z"/>
			<path fill-rule="evenodd" fill="#66cc99" stroke="#555555" stroke-width="0.02" opacity="0.6" d="M 29.86404745693677,35.08247999999998 L 29.860127499930307,35.002687442063554 L 29.848405379933787,34.92366332385121 L 29.82899398706479,34.84616869704818 L 29.80208026364804,34.77094987727362 L 29.767923403552487,34.69873126288048 L 29.726852356012948,34.630208358604214 L 29.679262657668968,34.56604107747146 L 29.625612623330607,34.506847385476725 L 29.56641893215699,34.45319735023289 L 29.502251651752328,34.405607650907065 L 29.433728748104503,34.3645366023191 L 29.36151013423401,34.330379741118584 L 29.286291314871058,34.30346601655087 L 29.208796688365197,34.28405462249621 L 29.12977257033205,34.27233250129055 L 29.04998000622788,34.26841254336919 L 28.970187442063498,34.272332500069695 L 28.891163323851213,34.284054620066215 L 28.813668697048193,34.30346601293521 L 28.73844987727363,34.33037973635196 L 28.666231262880487,34.364536596447515 L 28.597708358604216,34.405607643987054 L 28.533541077471465,34.45319734233102 L 28.47434738547673,34.50684737666939 L 28.4206973502329,34.56604106784301 L 28.373107650907073,34.63020834824766 L 28.332036602319103,34.6987312518955 L 28.297879741118585,34.77094986576599 L 28.270966016550872,34.846168685128944 L 28.25155462249621,34.923663311634805 L 28.239832501290554,35.00268742966795 L 28.23591254336919,35.08247999377212 L 28.239832500069703,35.162272557936504 L 28.251554620066216,35.241296676148785 L 28.27096601293521,35.318791302951816 L 28.297879736351963,35.39401012272637 L 28.332036596447516,35.466228737119515 L 28.373107643987055,35.534751641395786 L 28.420697342331035,35.59891892252853 L 28.474347376669396,35.65811261452327 L 28.533541067843014,35.7117626497671 L 28.597708348247675,35.75935234909293 L 28.666231251895503,35.800423397680895 L 28.738449865765997,35.83458025888142 L 28.81366868512895,35.86149398344913 L 28.89116331163481,35.88090537750379 L 28.970187429667952,35.892627498709444 L 29.049979993772123,35.89654745663081 L 29.129772557936505,35.8926274999303 L 29.208796676148793,35.880905379933786 L 29.286291302951813,35.86149398706479 L 29.36151012272637,35.834580263648036 L 29.433728737119512,35.800423403552486 L 29.502251641395787,35.75935235601295 L 29.566418922528534,35.71176265766897 L 29.625612614523277,35.6581126233306 L 29.679262649767107,35.59891893215699 L 29.726852349092933,35.53475165175233 L 29.7679233976809,35.466228748104506 L 29.802080258881418,35.39401013423401 L 29.82899398344913,35.318791314871056 L 29.848405377503795,35.24129668836519 L 29.86012749870945,35.16227257033205 L 29.86404745693677,35.08247999999998 z"/>
			<path fill-rule="evenodd" fill="#66cc99" stroke="#555555" stroke-width="0.02" opacity="0.6" d="M 11.19632254,33.633412540000016 L 11.19632254,35.26154745376466 L 12.623797453764618,35.26154745999998 L 12.62379745999999,33.63341254623534 L 11.19632254,33.633412540000016 z"/>
			<path fill-rule="evenodd" fill="#66cc99" stroke="#555555" stroke-width="0.02" opacity="0.6" d="M 25.695912540000005,34.268412540000014 L 25.695912540000005,35.89654745376461 L 27.324047453764617,35.89654745999998 L 27.324047459999985,34.26841254623538 L 25.695912540000005,34.268412540000014 z"/>
			<path fill-rule="evenodd" fill="#66cc99" stroke="#555555" stroke-width="0.02" opacity="0.6" d="M 18.068292539999995,33.59150254000001 L 18.068292539999995,34.66845745376465 L 20.346667453764628,34.66845746 L 20.34666745999999,33.591502546235354 L 18.068292539999995,33.59150254000001 z"/>
			<path fill-rule="evenodd" fill="#66cc99" stroke="#555555" stroke-width="0.02" opacity="0.6" d="M 13.096242539999999,33.633412540000016 L 13.096242539999999,35.26154745376465 L 14.523717453764622,35.26154745999998 L 14.523717459999995,33.63341254623535 L 13.096242539999999,33.633412540000016 z"/>
			<path fill-rule="evenodd" fill="#66cc99" stroke="#555555" stroke-width="0.02" opacity="0.6" d="M 12.17803254,40.501572540000026 L 12.17803254,41.72838745376467 L 12.907007453764626,41.72838745999997 L 12.907007459999987,40.50157254623534 L 12.17803254,40.501572540000026 z"/>
			<path fill-rule="evenodd" fill="#66cc99" stroke="#555555" stroke-width="0.02" opacity="0.6" d="M 11.228072540000001,40.501572540000026 L 11.228072540000001,41.72838745376467 L 11.95704745376462,41.72838745999997 L 11.957047459999986,40.50157254623532 L 11.228072540000001,40.501572540000026 z"/>
			<path fill-rule="evenodd" fill="#66cc99" stroke="#555555" stroke-width="0.02" opacity="0.6" d="M 31.78809745693677,41.43247999999998 L 31.78453830836076,41.36003186638844 L 31.77389513887318,41.28828144167988 L 31.75627044770837,41.21791972791483 L 31.731833970276973,41.14962434686076 L 31.70082104321486,41.084053020370824 L 31.663530337963138,41.021837236164394 L 31.620320984398504,40.963576166253844 L 31.57160911221632,40.90983089659105 L 31.517863843374595,40.86111902350336 L 31.459602774192145,40.81790966895688 L 31.39738699061413,40.78061896265672 L 31.331815664646893,40.74960603448965 L 31.26352028400437,40.72516955590728 L 31.193158570536532,40.70754486355681 L 31.12140814600715,40.6969016928601 L 31.04896000622787,40.693342543369184 L 30.976511866388385,40.69690169163925 L 30.904761441679884,40.70754486112682 L 30.834399727914846,40.725169552291625 L 30.766104346860764,40.749606029723026 L 30.70053302037083,40.78061895678514 L 30.638317236164397,40.81790966203686 L 30.580056166253847,40.861119015601496 L 30.52631089659106,40.90983088778368 L 30.47759902350337,40.9635761566254 L 30.434389668956886,41.02183722580786 L 30.397098962656724,41.08405300938587 L 30.366086034489655,41.14962433535311 L 30.34164955590728,41.21791971599563 L 30.32402486355682,41.28828142946347 L 30.313381692860105,41.36003185399285 L 30.30982254336919,41.43247999377213 L 30.31338169163925,41.504928133611614 L 30.324024861126826,41.57667855832012 L 30.34164955229163,41.64704027208516 L 30.36608602972303,41.715335653139235 L 30.397098956785147,41.78090697962917 L 30.434389662036867,41.8431227638356 L 30.477599015601506,41.90138383374615 L 30.526310887783687,41.955129103408936 L 30.58005615662541,42.00384097649663 L 30.63831722580786,42.04705033104312 L 30.700533009385875,42.08434103734328 L 30.766104335353113,42.115353965510344 L 30.83439971599563,42.13979044409272 L 30.904761429463473,42.15741513644318 L 30.97651185399285,42.168058307139894 L 31.048959993772133,42.17161745663081 L 31.121408133611617,42.16805830836075 L 31.193158558320114,42.15741513887317 L 31.26352027208516,42.139790447708364 L 31.33181565313924,42.11535397027697 L 31.397386979629168,42.084341043214856 L 31.4596027638356,42.047050337963135 L 31.51786383374615,42.0038409843985 L 31.57160910340894,41.95512911221632 L 31.620320976496636,41.901383843374596 L 31.663530331043113,41.843122774192146 L 31.700821037343275,41.78090699061413 L 31.73183396551035,41.715335664646894 L 31.756270444092717,41.647040284004376 L 31.77389513644318,41.57667857053653 L 31.7845383071399,41.504928146007146 L 31.78809745693677,41.43247999999998 z"/>
			<path fill-rule="evenodd" fill="#66cc99" stroke="#555555" stroke-width="0.02" opacity="0.6" d="M 28.310842540000007,40.69334254000001 L 28.310842540000007,42.17161745376461 L 29.789117453764618,42.17161745999998 L 29.789117459999986,40.69334254623538 L 28.310842540000007,40.69334254000001 z"/>
			<path fill-rule="evenodd" fill="#66cc99" stroke="#555555" stroke-width="0.02" opacity="0.6" d="M 18.068292539999995,42.164002540000006 L 18.068292539999995,43.24095745376465 L 20.346667453764628,43.24095746 L 20.34666745999999,42.16400254623535 L 18.068292539999995,42.164002540000006 z"/>
			<path fill-rule="evenodd" fill="#66cc99" stroke="#555555" stroke-width="0.02" opacity="0.6" d="M 18.068292539999995,39.862762540000006 L 18.068292539999995,40.93971745376465 L 20.346667453764628,40.93971746 L 20.34666745999999,39.86276254623535 L 18.068292539999995,39.862762540000006 z"/>
			<path fill-rule="evenodd" fill="#66cc99" stroke="#555555" stroke-width="0.02" opacity="0.6" d="M 15.220952539999999,39.76370254000001 L 15.220952539999999,41.19117745376465 L 16.849087453764625,41.19117745999999 L 16.849087459999993,39.76370254623535 L 15.220952539999999,39.76370254000001 z"/>
			<path fill-rule="evenodd" fill="#66cc99" stroke="#555555" stroke-width="0.02" opacity="0.6" d="M 13.12799254,40.501572540000026 L 13.12799254,41.72838745376466 L 13.856967453764625,41.72838745999997 L 13.856967459999986,40.50157254623534 L 13.12799254,40.501572540000026 z"/>
			<path fill-rule="evenodd" fill="#66cc99" stroke="#555555" stroke-width="0.02" opacity="0.6" d="M 18.068292539999995,37.56406254 L 18.068292539999995,38.64101745376465 L 20.346667453764628,38.64101745999999 L 20.34666745999999,37.56406254623535 L 18.068292539999995,37.56406254 z"/>
			<path fill-rule="evenodd" fill="#66cc99" stroke="#555555" stroke-width="0.02" opacity="0.6" d="M 11.228072540000001,37.801552540000024 L 11.228072540000001,39.028367453764666 L 11.95704745376462,39.02836745999997 L 11.957047459999986,37.80155254623533 L 11.228072540000001,37.801552540000024 z"/>
			<path fill-rule="evenodd" fill="#66cc99" stroke="#555555" stroke-width="0.02" opacity="0.6" d="M 13.12799254,37.801552540000024 L 13.12799254,39.02836745376466 L 13.856967453764625,39.02836745999997 L 13.856967459999986,37.801552546235335 L 13.12799254,37.801552540000024 z"/>
			<path fill-rule="evenodd" fill="#66cc99" stroke="#555555" stroke-width="0.02" opacity="0.6" d="M 15.220952539999999,37.86378254000002 L 15.220952539999999,39.29125745376465 L 16.849087453764625,39.29125745999999 L 16.849087459999993,37.86378254623535 L 15.220952539999999,37.86378254000002 z"/>
			<path fill-rule="evenodd" fill="#66cc99" stroke="#555555" stroke-width="0.02" opacity="0.6" d="M 23.86711254,38.71214254 L 23.86711254,42.09033745376465 L 26.145487453764613,42.09033745999999 L 26.14548745999999,38.712142546235384 L 23.86711254,38.71214254 z"/>
			<path fill-rule="evenodd" fill="#66cc99" stroke="#555555" stroke-width="0.02" opacity="0.6" d="M 30.789877456936768,29.001719999999985 L 30.78631830836076,28.929271866388444 L 30.775675138873176,28.857521441679882 L 30.75805044770837,28.78715972791484 L 30.73361397027697,28.718864346860762 L 30.702601043214855,28.65329302037083 L 30.665310337963135,28.591077236164395 L 30.6221009843985,28.532816166253845 L 30.573389112216315,28.47907089659106 L 30.519643843374592,28.430359023503367 L 30.461382774192142,28.387149668956884 L 30.399166990614127,28.34985896265672 L 30.33359566464689,28.318846034489653 L 30.26530028400437,28.29440955590728 L 30.19493857053653,28.27678486355682 L 30.123188146007145,28.266141692860103 L 30.050740006227866,28.262582543369188 L 29.978291866388382,28.26614169163925 L 29.90654144167988,28.276784861126828 L 29.836179727914843,28.294409552291633 L 29.76788434686076,28.31884602972303 L 29.702313020370827,28.349858956785148 L 29.640097236164394,28.38714966203687 L 29.581836166253844,28.4303590156015 L 29.52809089659106,28.479070887783685 L 29.479379023503366,28.532816156625408 L 29.436169668956882,28.59107722580786 L 29.39887896265672,28.653293009385877 L 29.36786603448965,28.71886433535311 L 29.343429555907278,28.78715971599563 L 29.32580486355682,28.857521429463475 L 29.3151616928601,28.92927185399286 L 29.311602543369187,29.001719993772134 L 29.315161691639247,29.074168133611618 L 29.325804861126823,29.14591855832012 L 29.343429552291628,29.216280272085164 L 29.36786602972303,29.284575653139242 L 29.398878956785143,29.350146979629177 L 29.436169662036864,29.41236276383561 L 29.4793790156015,29.47062383374616 L 29.528090887783684,29.524369103408944 L 29.581836156625407,29.573080976496637 L 29.640097225807857,29.616290331043118 L 29.702313009385872,29.653581037343283 L 29.76788433535311,29.684593965510352 L 29.83617971599563,29.709030444092726 L 29.90654142946347,29.726655136443185 L 29.97829185399285,29.737298307139902 L 30.050739993772133,29.740857456630813 L 30.123188133611617,29.737298308360753 L 30.19493855832011,29.726655138873177 L 30.265300272085156,29.709030447708372 L 30.333595653139238,29.684593970276975 L 30.399166979629168,29.653581043214857 L 30.4613827638356,29.616290337963136 L 30.51964383374615,29.573080984398505 L 30.573389103408935,29.524369112216323 L 30.622100976496633,29.4706238433746 L 30.66531033104311,29.41236277419215 L 30.702601037343275,29.350146990614135 L 30.733613965510347,29.284575664646898 L 30.758050444092717,29.216280284004377 L 30.775675136443176,29.145918570536537 L 30.786318307139897,29.074168146007153 L 30.789877456936768,29.001719999999985 z"/>
			<path fill-rule="evenodd" fill="#66cc99" stroke="#555555" stroke-width="0.02" opacity="0.6" d="M 18.068292539999995,28.991562540000004 L 18.068292539999995,30.06851745376465 L 20.346667453764628,30.068517459999995 L 20.34666745999999,28.99156254623535 L 18.068292539999995,28.991562540000004 z"/>
			<path fill-rule="evenodd" fill="#66cc99" stroke="#555555" stroke-width="0.02" opacity="0.6" d="M 10.67308254,51.31308254 L 10.67308254,53.14187745376467 L 12.50187745376473,53.14187745999999 L 12.50187745999999,51.31308254623532 L 10.67308254,51.31308254 z"/>
			<path fill-rule="evenodd" fill="#66cc99" stroke="#555555" stroke-width="0.02" opacity="0.6" d="M 31.408372540000002,55.321202540000016 L 31.408372540000002,56.74867745376463 L 33.036507453764735,56.74867745999999 L 33.03650745999998,55.32120254623538 L 31.408372540000002,55.321202540000016 z"/>
			<path fill-rule="evenodd" fill="#66cc99" stroke="#555555" stroke-width="0.02" opacity="0.6" d="M 28.553412540000004,55.323742540000005 L 28.553412540000004,56.75121745376462 L 30.181547453764736,56.751217459999985 L 30.181547459999987,55.32374254623537 L 28.553412540000004,55.323742540000005 z"/>
			<path fill-rule="evenodd" fill="#66cc99" stroke="#555555" stroke-width="0.02" opacity="0.6" d="M 31.408372540000002,53.42128254000001 L 31.408372540000002,54.84875745376462 L 33.036507453764735,54.84875745999998 L 33.03650745999998,53.421282546235375 L 31.408372540000002,53.42128254000001 z"/>
			<path fill-rule="evenodd" fill="#66cc99" stroke="#555555" stroke-width="0.02" opacity="0.6" d="M 19.003007456936768,54.44997999999998 L 18.999087499930297,54.37018744206349 L 18.98736537993379,54.29116332385121 L 18.967953987064803,54.21366869704823 L 18.941040263648002,54.13844987727353 L 18.90688340355246,54.06623126288041 L 18.865812356012906,53.997708358604136 L 18.818222657668947,53.93354107747143 L 18.76457262333067,53.8743473854768 L 18.705378932156933,53.82069735023283 L 18.641211651752275,53.773107650907036 L 18.57268874810446,53.73203660231908 L 18.500470134233936,53.697879741118534 L 18.425251314871087,53.67096601655087 L 18.347756688365155,53.6515546224962 L 18.268732570332034,53.63983250129054 L 18.18894000622782,53.63591254336918 L 18.109147442063488,53.63983250006969 L 18.030123323851246,53.65155462006621 L 17.952628697048244,53.67096601293519 L 17.877409877273454,53.69787973635202 L 17.805191262880506,53.7320365964475 L 17.736668358604195,53.773107643987046 L 17.672501077471352,53.820697342331115 L 17.61330738547681,53.87434737666932 L 17.55965735023292,53.93354106784297 L 17.51206765090701,53.997708348247755 L 17.47099660231906,54.06623125189557 L 17.43683974111854,54.13844986576607 L 17.409926016550884,54.2136686851289 L 17.390514622496184,54.2911633116349 L 17.37879250129057,54.37018742966783 L 17.374872543369186,54.44997999377218 L 17.378792500069704,54.529772557936504 L 17.39051462006621,54.608796676148785 L 17.4099260129352,54.686291302951766 L 17.436839736352,54.76151012272646 L 17.470996596447545,54.83372873711958 L 17.512067643987095,54.90225164139586 L 17.559657342331054,54.96641892252856 L 17.61330737666933,55.02561261452319 L 17.67250106784307,55.07926264976716 L 17.736668348247726,55.126852349092964 L 17.80519125189554,55.167923397680916 L 17.877409865766065,55.20208025888146 L 17.952628685128918,55.22899398344912 L 18.030123311634846,55.24840537750379 L 18.109147429667964,55.26012749870945 L 18.188939993772177,55.26404745663081 L 18.268732557936513,55.2601274999303 L 18.347756676148755,55.24840537993378 L 18.425251302951754,55.228993987064804 L 18.500470122726547,55.202080263647964 L 18.572688737119492,55.16792340355249 L 18.641211641395802,55.12685235601295 L 18.70537892252865,55.07926265766888 L 18.76457261452319,55.025612623330666 L 18.81822264976708,54.96641893215702 L 18.86581234909299,54.90225165175224 L 18.90688339768094,54.83372874810442 L 18.94104025888146,54.76151013423392 L 18.967953983449117,54.68629131487109 L 18.987365377503814,54.6087966883651 L 18.999087498709432,54.52977257033216 L 19.003007456936768,54.44997999999998 z"/>
			<path fill-rule="evenodd" fill="#66cc99" stroke="#555555" stroke-width="0.02" opacity="0.6" d="M 12.501877456936768,54.76748 L 12.497474383557323,54.67785338237423 L 12.484307567116643,54.58908991184332 L 12.462503810948808,54.50204443537927 L 12.432273097144869,54.41755524850436 L 12.3939065640045,54.336436028274605 L 12.347773702215214,54.25946799712528 L 12.294318796454831,54.187392399271296 L 12.23405664668718,54.12090336212043 L 12.167567610357075,54.06064121144697 L 12.095492013231173,54.007186304704746 L 12.018523982710198,53.961053441867 L 11.937404763003169,53.92268690762171 L 11.852915576539893,53.892456192666835 L 11.765870100373032,53.870652435313346 L 11.677106630021306,53.85748561766353 L 11.587480006227826,53.853082543369176 L 11.497853382374231,53.85748561644267 L 11.409089911843363,53.87065243288336 L 11.322044435379283,53.89245618905118 L 11.237555248504293,53.92268690285516 L 11.156436028274634,53.96105343599548 L 11.079467997125386,54.00718629778472 L 11.007392399271287,54.06064120354517 L 10.940903362120372,54.12090335331287 L 10.880641211447031,54.18739238964285 L 10.827186304704702,54.2594679867689 L 10.781053441866947,54.3364360172899 L 10.74268690762167,54.41755523699691 L 10.712456192666878,54.50204442345996 L 10.690652435313332,54.589089899627005 L 10.67748561766354,54.67785336997861 L 10.673082543369185,54.76747999377219 L 10.677485616442675,54.85710661762575 L 10.690652432883356,54.94587008815669 L 10.71245618905119,55.03291556462073 L 10.74268690285513,55.11740475149564 L 10.7810534359955,55.1985239717254 L 10.827186297784785,55.27549200287472 L 10.880641203545165,55.3475676007287 L 10.94090335331282,55.41405663787957 L 11.007392389642922,55.47431878855303 L 11.079467986768824,55.52777369529525 L 11.156436017289801,55.573906558133 L 11.23755523699683,55.612273092378295 L 11.322044423460106,55.64250380733317 L 11.409089899626965,55.66430756468665 L 11.49785336997869,55.67747438233647 L 11.58747999377217,55.68187745663082 L 11.677106617625766,55.677474383557325 L 11.765870088156634,55.664307567116644 L 11.852915564620712,55.64250381094882 L 11.937404751495704,55.612273097144836 L 12.018523971725365,55.57390656400452 L 12.09549200287461,55.52777370221529 L 12.16756760072871,55.47431879645483 L 12.234056637879624,55.41405664668713 L 12.294318788552964,55.34756761035716 L 12.347773695295293,55.27549201323111 L 12.39390655813305,55.198523982710114 L 12.432273092378328,55.1174047630031 L 12.46250380733312,55.032915576540056 L 12.484307564686665,54.94587010037299 L 12.497474382336456,54.857106630021406 L 12.501877456936768,54.76748 z"/>
			<path fill-rule="evenodd" fill="#66cc99" stroke="#555555" stroke-width="0.02" opacity="0.6" d="M 28.553412540000004,53.42382254000002 L 28.553412540000004,54.85129745376462 L 30.181547453764736,54.85129745999999 L 30.181547459999987,53.42382254623538 L 28.553412540000004,53.42382254000002 z"/>
			<path fill-rule="evenodd" fill="#66cc99" stroke="#555555" stroke-width="0.02" opacity="0.6" d="M 21.543007456936767,54.44997999999998 L 21.539087499930297,54.37018744206349 L 21.52736537993379,54.29116332385121 L 21.507953987064802,54.21366869704823 L 21.481040263648,54.13844987727353 L 21.44688340355246,54.06623126288041 L 21.405812356012905,53.997708358604136 L 21.358222657668946,53.93354107747143 L 21.30457262333067,53.8743473854768 L 21.24537893215693,53.82069735023283 L 21.181211651752275,53.773107650907036 L 21.11268874810446,53.73203660231908 L 21.04047013423394,53.697879741118534 L 20.965251314871086,53.67096601655087 L 20.887756688365155,53.6515546224962 L 20.808732570332037,53.63983250129054 L 20.72894000622782,53.63591254336918 L 20.649147442063487,53.63983250006969 L 20.570123323851245,53.65155462006621 L 20.492628697048243,53.67096601293519 L 20.417409877273453,53.69787973635202 L 20.345191262880505,53.7320365964475 L 20.276668358604194,53.773107643987046 L 20.21250107747135,53.820697342331115 L 20.153307385476808,53.87434737666932 L 20.09965735023292,53.93354106784297 L 20.05206765090701,53.997708348247755 L 20.01099660231906,54.06623125189557 L 19.97683974111854,54.13844986576607 L 19.949926016550883,54.2136686851289 L 19.930514622496187,54.2911633116349 L 19.918792501290568,54.37018742966783 L 19.91487254336919,54.44997999377218 L 19.918792500069703,54.529772557936504 L 19.93051462006621,54.608796676148785 L 19.949926012935197,54.686291302951766 L 19.976839736351998,54.76151012272646 L 20.010996596447544,54.83372873711958 L 20.052067643987098,54.90225164139586 L 20.099657342331053,54.96641892252856 L 20.15330737666933,55.02561261452319 L 20.212501067843068,55.07926264976716 L 20.276668348247725,55.126852349092964 L 20.34519125189554,55.167923397680916 L 20.417409865766064,55.20208025888146 L 20.492628685128917,55.22899398344912 L 20.570123311634845,55.24840537750379 L 20.649147429667963,55.26012749870945 L 20.728939993772176,55.26404745663081 L 20.808732557936512,55.2601274999303 L 20.887756676148754,55.24840537993378 L 20.965251302951753,55.228993987064804 L 21.040470122726546,55.202080263647964 L 21.11268873711949,55.16792340355249 L 21.1812116413958,55.12685235601295 L 21.245378922528648,55.07926265766888 L 21.304572614523188,55.025612623330666 L 21.35822264976708,54.96641893215702 L 21.40581234909299,54.90225165175224 L 21.44688339768094,54.83372874810442 L 21.48104025888146,54.76151013423392 L 21.507953983449116,54.68629131487109 L 21.527365377503813,54.6087966883651 L 21.53908749870943,54.52977257033216 L 21.543007456936767,54.44997999999998 z"/>
			<path fill-rule="evenodd" fill="#66cc99" stroke="#555555" stroke-width="0.02" opacity="0.6" d="M 26.623007456936765,54.44997999999998 L 26.619087499930306,54.37018744206363 L 26.607365379933768,54.291163323851116 L 26.587953987064783,54.21366869704814 L 26.561040263648056,54.138449877273665 L 26.526883403552468,54.066231262880436 L 26.48581235601294,53.99770835860419 L 26.43822265766891,53.933541077471375 L 26.384572623330644,53.87434738547677 L 26.325378932156934,53.82069735023283 L 26.261211651752337,53.77310765090707 L 26.19268874810449,53.732036602319106 L 26.12047013423386,53.6978797411185 L 26.045251314871024,53.67096601655086 L 25.967756688365192,53.65155462249621 L 25.88873257033205,53.63983250129054 L 25.80894000622782,53.63591254336918 L 25.729147442063496,53.63983250006969 L 25.650123323851265,53.6515546200662 L 25.572628697048206,53.67096601293519 L 25.497409877273373,53.69787973635206 L 25.425191262880528,53.732036596447486 L 25.356668358604193,53.773107643987046 L 25.29250107747135,53.820697342331115 L 25.233307385476806,53.87434737666932 L 25.17965735023292,53.93354106784297 L 25.132067650907008,53.997708348247755 L 25.090996602319063,54.06623125189557 L 25.056839741118537,54.13844986576607 L 25.02992601655088,54.2136686851289 L 25.010514622496185,54.2911633116349 L 24.998792501290566,54.37018742966783 L 24.994872543369187,54.44997999377218 L 24.9987925000697,54.529772557936504 L 25.010514620066207,54.608796676148785 L 25.029926012935196,54.686291302951766 L 25.056839736352,54.76151012272646 L 25.090996596447543,54.83372873711958 L 25.132067643987096,54.90225164139586 L 25.17965734233105,54.96641892252856 L 25.233307376669327,55.02561261452319 L 25.292501067843066,55.07926264976716 L 25.356668348247723,55.126852349092964 L 25.425191251895505,55.16792339768088 L 25.497409865766137,55.20208025888149 L 25.572628685128972,55.22899398344913 L 25.650123311634804,55.24840537750378 L 25.72914742966795,55.26012749870945 L 25.808939993772174,55.26404745663081 L 25.888732557936503,55.2601274999303 L 25.96775667614873,55.24840537993379 L 26.045251302951794,55.228993987064804 L 26.12047012272662,55.202080263647936 L 26.192688737119465,55.16792340355251 L 26.26121164139574,55.12685235601298 L 26.32537892252866,55.07926265766886 L 26.3845726145232,55.02561262333066 L 26.438222649767148,54.96641893215694 L 26.485812349092935,54.902251651752316 L 26.52688339768094,54.83372874810442 L 26.5610402588814,54.76151013423405 L 26.587953983449133,54.686291314871035 L 26.607365377503815,54.6087966883651 L 26.61908749870943,54.52977257033213 L 26.623007456936765,54.44997999999998 z"/>
			<path fill-rule="evenodd" fill="#66cc99" stroke="#555555" stroke-width="0.02" opacity="0.6" d="M 24.083007456936766,54.44997999999998 L 24.079087499930296,54.37018744206349 L 24.06736537993379,54.29116332385121 L 24.0479539870648,54.21366869704823 L 24.021040263648,54.13844987727353 L 23.986883403552458,54.06623126288041 L 23.945812356012905,53.997708358604136 L 23.898222657668946,53.93354107747143 L 23.84457262333067,53.8743473854768 L 23.785378932156934,53.82069735023283 L 23.721211651752274,53.773107650907036 L 23.65268874810446,53.73203660231908 L 23.580470134233938,53.697879741118534 L 23.505251314871085,53.67096601655087 L 23.427756688365154,53.6515546224962 L 23.348732570332036,53.63983250129054 L 23.26894000622782,53.63591254336918 L 23.189147442063486,53.63983250006969 L 23.110123323851244,53.65155462006621 L 23.032628697048242,53.67096601293519 L 22.957409877273452,53.69787973635202 L 22.885191262880504,53.7320365964475 L 22.816668358604193,53.773107643987046 L 22.75250107747135,53.820697342331115 L 22.693307385476807,53.87434737666932 L 22.63965735023292,53.93354106784297 L 22.59206765090701,53.997708348247755 L 22.550996602319064,54.06623125189557 L 22.516839741118538,54.13844986576607 L 22.489926016550882,54.2136686851289 L 22.470514622496186,54.2911633116349 L 22.458792501290567,54.37018742966783 L 22.454872543369188,54.44997999377218 L 22.458792500069702,54.529772557936504 L 22.470514620066208,54.608796676148785 L 22.489926012935197,54.686291302951766 L 22.516839736352,54.76151012272646 L 22.550996596447543,54.83372873711958 L 22.592067643987097,54.90225164139586 L 22.639657342331052,54.96641892252856 L 22.693307376669328,55.02561261452319 L 22.752501067843067,55.07926264976716 L 22.816668348247724,55.126852349092964 L 22.88519125189554,55.167923397680916 L 22.957409865766063,55.20208025888146 L 23.032628685128916,55.22899398344912 L 23.110123311634844,55.24840537750379 L 23.189147429667962,55.26012749870945 L 23.268939993772175,55.26404745663081 L 23.34873255793651,55.2601274999303 L 23.427756676148757,55.24840537993378 L 23.505251302951752,55.228993987064804 L 23.580470122726545,55.202080263647964 L 23.65268873711949,55.16792340355249 L 23.7212116413958,55.12685235601295 L 23.785378922528647,55.07926265766888 L 23.844572614523187,55.025612623330666 L 23.898222649767078,54.96641893215702 L 23.94581234909299,54.90225165175224 L 23.986883397680938,54.83372874810442 L 24.02104025888146,54.76151013423392 L 24.047953983449116,54.68629131487109 L 24.067365377503812,54.6087966883651 L 24.07908749870943,54.52977257033216 L 24.083007456936766,54.44997999999998 z"/>
			<path fill-rule="evenodd" fill="#66cc99" stroke="#555555" stroke-width="0.02" opacity="0.6" d="M 24.994872539999996,56.175912540000006 L 24.994872539999996,57.804047453764646 L 26.623007453764732,57.804047459999985 L 26.623007459999982,56.175912546235374 L 24.994872539999996,56.175912540000006 z"/>
			<path fill-rule="evenodd" fill="#66cc99" stroke="#555555" stroke-width="0.02" opacity="0.6" d="M 17.37487254,56.175912540000006 L 17.37487254,57.804047453764646 L 19.003007453764734,57.804047459999985 L 19.003007459999996,56.175912546235345 L 17.37487254,56.175912540000006 z"/>
			<path fill-rule="evenodd" fill="#66cc99" stroke="#555555" stroke-width="0.02" opacity="0.6" d="M 21.543007456936767,56.98997999999999 L 21.539087499930297,56.91018744206349 L 21.52736537993379,56.83116332385121 L 21.507953987064802,56.75366869704823 L 21.481040263648,56.67844987727353 L 21.44688340355246,56.606231262880414 L 21.405812356012905,56.53770835860414 L 21.358222657668946,56.47354107747143 L 21.30457262333067,56.4143473854768 L 21.24537893215693,56.36069735023283 L 21.181211651752275,56.31310765090704 L 21.11268874810446,56.272036602319076 L 21.04047013423394,56.23787974111853 L 20.965251314871086,56.21096601655087 L 20.887756688365155,56.1915546224962 L 20.808732570332037,56.17983250129055 L 20.72894000622782,56.17591254336918 L 20.649147442063487,56.17983250006969 L 20.570123323851245,56.19155462006621 L 20.492628697048243,56.21096601293519 L 20.417409877273453,56.23787973635203 L 20.345191262880505,56.2720365964475 L 20.276668358604194,56.313107643987045 L 20.21250107747135,56.360697342331115 L 20.153307385476808,56.414347376669326 L 20.09965735023292,56.47354106784297 L 20.05206765090701,56.537708348247754 L 20.01099660231906,56.60623125189557 L 19.97683974111854,56.67844986576607 L 19.949926016550883,56.75366868512891 L 19.930514622496187,56.831163311634896 L 19.918792501290568,56.91018742966783 L 19.91487254336919,56.98997999377218 L 19.918792500069703,57.0697725579365 L 19.93051462006621,57.148796676148784 L 19.949926012935197,57.22629130295177 L 19.976839736351998,57.30151012272647 L 20.010996596447544,57.373728737119585 L 20.052067643987098,57.442251641395856 L 20.099657342331053,57.50641892252857 L 20.15330737666933,57.56561261452319 L 20.212501067843068,57.619262649767165 L 20.276668348247725,57.666852349092956 L 20.34519125189554,57.707923397680915 L 20.417409865766064,57.74208025888146 L 20.492628685128917,57.76899398344912 L 20.570123311634845,57.78840537750379 L 20.649147429667963,57.80012749870945 L 20.728939993772176,57.80404745663082 L 20.808732557936512,57.800127499930305 L 20.887756676148754,57.788405379933785 L 20.965251302951753,57.7689939870648 L 21.040470122726546,57.74208026364797 L 21.11268873711949,57.70792340355249 L 21.1812116413958,57.66685235601295 L 21.245378922528648,57.61926265766888 L 21.304572614523188,57.56561262333067 L 21.35822264976708,57.506418932157025 L 21.40581234909299,57.44225165175224 L 21.44688339768094,57.373728748104426 L 21.48104025888146,57.30151013423393 L 21.507953983449116,57.22629131487109 L 21.527365377503813,57.14879668836511 L 21.53908749870943,57.06977257033216 L 21.543007456936767,56.98997999999999 z"/>
			<path fill-rule="evenodd" fill="#66cc99" stroke="#555555" stroke-width="0.02" opacity="0.6" d="M 24.083007456936766,56.98997999999999 L 24.079087499930296,56.91018744206349 L 24.06736537993379,56.83116332385121 L 24.0479539870648,56.75366869704823 L 24.021040263648,56.67844987727353 L 23.986883403552458,56.606231262880414 L 23.945812356012905,56.53770835860414 L 23.898222657668946,56.47354107747143 L 23.84457262333067,56.4143473854768 L 23.785378932156934,56.36069735023283 L 23.721211651752274,56.31310765090704 L 23.65268874810446,56.272036602319076 L 23.580470134233938,56.23787974111853 L 23.505251314871085,56.21096601655087 L 23.427756688365154,56.1915546224962 L 23.348732570332036,56.17983250129055 L 23.26894000622782,56.17591254336918 L 23.189147442063486,56.17983250006969 L 23.110123323851244,56.19155462006621 L 23.032628697048242,56.21096601293519 L 22.957409877273452,56.23787973635203 L 22.885191262880504,56.2720365964475 L 22.816668358604193,56.313107643987045 L 22.75250107747135,56.360697342331115 L 22.693307385476807,56.414347376669326 L 22.63965735023292,56.47354106784297 L 22.59206765090701,56.537708348247754 L 22.550996602319064,56.60623125189557 L 22.516839741118538,56.67844986576607 L 22.489926016550882,56.75366868512891 L 22.470514622496186,56.831163311634896 L 22.458792501290567,56.91018742966783 L 22.454872543369188,56.98997999377218 L 22.458792500069702,57.0697725579365 L 22.470514620066208,57.148796676148784 L 22.489926012935197,57.22629130295177 L 22.516839736352,57.30151012272647 L 22.550996596447543,57.373728737119585 L 22.592067643987097,57.442251641395856 L 22.639657342331052,57.50641892252857 L 22.693307376669328,57.56561261452319 L 22.752501067843067,57.619262649767165 L 22.816668348247724,57.666852349092956 L 22.88519125189554,57.707923397680915 L 22.957409865766063,57.74208025888146 L 23.032628685128916,57.76899398344912 L 23.110123311634844,57.78840537750379 L 23.189147429667962,57.80012749870945 L 23.268939993772175,57.80404745663082 L 23.34873255793651,57.800127499930305 L 23.427756676148757,57.788405379933785 L 23.505251302951752,57.7689939870648 L 23.580470122726545,57.74208026364797 L 23.65268873711949,57.70792340355249 L 23.7212116413958,57.66685235601295 L 23.785378922528647,57.61926265766888 L 23.844572614523187,57.56561262333067 L 23.898222649767078,57.506418932157025 L 23.94581234909299,57.44225165175224 L 23.986883397680938,57.373728748104426 L 24.02104025888146,57.30151013423393 L 24.047953983449116,57.22629131487109 L 24.067365377503812,57.14879668836511 L 24.07908749870943,57.06977257033216 L 24.083007456936766,56.98997999999999 z"/>
			<path fill-rule="evenodd" fill="#66cc99" stroke="#555555" stroke-width="0.02" opacity="0.6" d="M 12.501877456936768,57.307480000000005 L 12.497474383557323,57.21785338237424 L 12.484307567116643,57.129089911843316 L 12.462503810948808,57.04204443537927 L 12.432273097144869,56.95755524850436 L 12.3939065640045,56.876436028274604 L 12.347773702215214,56.79946799712528 L 12.294318796454831,56.7273923992713 L 12.23405664668718,56.66090336212043 L 12.167567610357075,56.60064121144697 L 12.095492013231173,56.54718630470475 L 12.018523982710198,56.50105344186701 L 11.937404763003169,56.46268690762171 L 11.852915576539893,56.432456192666834 L 11.765870100373032,56.410652435313345 L 11.677106630021306,56.397485617663534 L 11.587480006227826,56.39308254336918 L 11.497853382374231,56.39748561644268 L 11.409089911843363,56.41065243288336 L 11.322044435379283,56.43245618905119 L 11.237555248504293,56.46268690285517 L 11.156436028274634,56.50105343599549 L 11.079467997125386,56.54718629778472 L 11.007392399271287,56.600641203545166 L 10.940903362120372,56.660903353312875 L 10.880641211447031,56.72739238964285 L 10.827186304704702,56.799467986768896 L 10.781053441866947,56.8764360172899 L 10.74268690762167,56.95755523699691 L 10.712456192666878,57.04204442345996 L 10.690652435313332,57.129089899627004 L 10.67748561766354,57.21785336997861 L 10.673082543369185,57.3074799937722 L 10.677485616442675,57.39710661762576 L 10.690652432883356,57.48587008815669 L 10.71245618905119,57.572915564620736 L 10.74268690285513,57.65740475149564 L 10.7810534359955,57.7385239717254 L 10.827186297784785,57.81549200287473 L 10.880641203545165,57.8875676007287 L 10.94090335331282,57.954056637879575 L 11.007392389642922,58.014318788553034 L 11.079467986768824,58.06777369529525 L 11.156436017289801,58.113906558132996 L 11.23755523699683,58.152273092378294 L 11.322044423460106,58.18250380733317 L 11.409089899626965,58.20430756468666 L 11.49785336997869,58.217474382336476 L 11.58747999377217,58.22187745663082 L 11.677106617625766,58.217474383557324 L 11.765870088156634,58.20430756711664 L 11.852915564620712,58.182503810948816 L 11.937404751495704,58.15227309714484 L 12.018523971725365,58.113906564004516 L 12.09549200287461,58.06777370221529 L 12.16756760072871,58.01431879645484 L 12.234056637879624,57.95405664668713 L 12.294318788552964,57.887567610357166 L 12.347773695295293,57.81549201323111 L 12.39390655813305,57.73852398271011 L 12.432273092378328,57.6574047630031 L 12.46250380733312,57.572915576540055 L 12.484307564686665,57.485870100373 L 12.497474382336456,57.397106630021405 L 12.501877456936768,57.307480000000005 z"/>
			<path fill-rule="evenodd" fill="#66cc99" stroke="#555555" stroke-width="0.02" opacity="0.6" d="M 31.412182540000003,48.72482254000001 L 31.412182540000003,50.55361745376462 L 33.24097745376462,50.55361745999999 L 33.24097745999999,48.72482254623538 L 31.412182540000003,48.72482254000001 z"/>
			<path fill-rule="evenodd" fill="#66cc99" stroke="#555555" stroke-width="0.02" opacity="0.6" d="M 26.741117456936774,49.63921999999999 L 26.736714383557334,49.54959338237429 L 26.723547567116643,49.46082991184335 L 26.701743810948802,49.373784435379235 L 26.671513097144896,49.28929524850444 L 26.63314656400454,49.208176028274686 L 26.587013702215298,49.131207997125394 L 26.533558796454855,49.05913239927132 L 26.473296646687057,48.99264336212028 L 26.40680761035713,48.932381211447016 L 26.334732013231164,48.87892630470474 L 26.25776398271028,48.83279344186705 L 26.176644763003203,48.794426907621734 L 26.092155576539994,48.76419619266686 L 26.005110100373077,48.742392435313356 L 25.916346630021316,48.72922561766353 L 25.82672000622788,48.724822543369186 L 25.73709338237424,48.729225616442676 L 25.64832991184335,48.742392432883356 L 25.56128443537924,48.7641961890512 L 25.47679524850444,48.79442690285511 L 25.395676028274668,48.83279343599547 L 25.31870799712542,48.878926297784695 L 25.24663239927131,48.93238120354516 L 25.180143362120383,48.992643353312864 L 25.119881211446973,49.05913238964291 L 25.066426304704702,49.13120798676889 L 25.02029344186701,49.20817601728979 L 24.981926907621702,49.28929523699685 L 24.951696192666887,49.37378442345993 L 24.92989243531333,49.46082989962702 L 24.916725617663552,49.549593369978545 L 24.91232254336919,49.63921999377218 L 24.91672561644268,49.72884661762574 L 24.929892432883353,49.817610088156634 L 24.95169618905119,49.90465556462072 L 24.981926902855125,49.989144751495616 L 25.02029343599546,50.07026397172531 L 25.066426297784773,50.1472320028747 L 25.119881203545187,50.219307600728726 L 25.180143353312907,50.28579663787966 L 25.246632389642876,50.34605878855299 L 25.318707986768782,50.39951369529523 L 25.395676017289798,50.445646558133 L 25.4767952369968,50.48401309237827 L 25.561284423460013,50.51424380733314 L 25.64832989962693,50.53604756468665 L 25.73709336997869,50.54921438233647 L 25.826719993772123,50.55361745663082 L 25.916346617625763,50.54921438355733 L 26.005110088156655,50.53604756711665 L 26.092155564620768,50.514243810948805 L 26.17664475149556,50.484013097144896 L 26.257763971725314,50.44564656400455 L 26.334732002874603,50.399513702215295 L 26.406807600728676,50.346058796454855 L 26.473296637879717,50.28579664668706 L 26.533558788552988,50.21930761035713 L 26.58701369529526,50.14723201323117 L 26.633146558132953,50.07026398271029 L 26.671513092378273,49.98914476300321 L 26.70174380733314,49.904655576539994 L 26.72354756468665,49.81761010037308 L 26.736714382336473,49.728846630021316 L 26.741117456936774,49.63921999999999 z"/>
			<path fill-rule="evenodd" fill="#66cc99" stroke="#555555" stroke-width="0.02" opacity="0.6" d="M 22.838412539999997,47.698662540000015 L 22.838412539999997,49.126137453764656 L 24.466547453764623,49.12613745999999 L 24.46654745999999,47.69866254623535 L 22.838412539999997,47.698662540000015 z"/>
			<path fill-rule="evenodd" fill="#66cc99" stroke="#555555" stroke-width="0.02" opacity="0.6" d="M 17.340582539999996,48.77308254000001 L 17.340582539999996,50.60187745376465 L 19.16937745376462,50.60187745999999 L 19.169377459999993,48.77308254623535 L 17.340582539999996,48.77308254000001 z"/>
			<path fill-rule="evenodd" fill="#66cc99" stroke="#555555" stroke-width="0.02" opacity="0.6" d="M 20.298412539999998,47.698662540000015 L 20.298412539999998,49.126137453764656 L 21.926547453764623,49.12613745999999 L 21.92654745999999,47.69866254623535 L 20.298412539999998,47.698662540000015 z"/>
			<path fill-rule="evenodd" fill="#66cc99" stroke="#555555" stroke-width="0.02" opacity="0.6" d="M 22.61616254000001,51.77154746 L 24.043637453764735,51.77154746 L 24.043637459999996,50.14341254623535 L 22.61616254623538,50.143412540000014 L 22.61616254000001,51.77154746 z"/>
			<path fill-rule="evenodd" fill="#66cc99" stroke="#555555" stroke-width="0.02" opacity="0.6" d="M 12.669517456936768,49.68748 L 12.665114383557325,49.59785338237426 L 12.651947567116647,49.50908991184335 L 12.630143810948814,49.422044435379284 L 12.599913097144869,49.33755524850436 L 12.561546564004537,49.25643602827468 L 12.515413702215234,49.17946799712531 L 12.461958796454816,49.107392399271276 L 12.401696646687098,49.04090336212033 L 12.33520761035712,48.98064121144701 L 12.26313201323117,48.92718630470474 L 12.186163982710285,48.88105344186705 L 12.105044763003143,48.842686907621705 L 12.020555576540003,48.812456192666865 L 11.933510100373034,48.79065243531334 L 11.844746630021309,48.77748561766353 L 11.755120006227884,48.773082543369185 L 11.665493382374232,48.777485616442675 L 11.57672991184331,48.79065243288336 L 11.489684435379239,48.8124561890512 L 11.405195248504368,48.84268690285513 L 11.324076028274725,48.88105343599545 L 11.247107997125381,48.927186297784715 L 11.1750323992713,48.98064120354517 L 11.108543362120372,49.04090335331287 L 11.048281211446966,49.107392389642925 L 10.994826304704707,49.179467986768884 L 10.948693441867015,49.25643601728977 L 10.91032690762169,49.33755523699687 L 10.880096192666874,49.42204442345997 L 10.858292435313338,49.50908989962699 L 10.845125617663546,49.59785336997857 L 10.840722543369186,49.68747999377219 L 10.845125616442676,49.77710661762574 L 10.858292432883353,49.865870088156655 L 10.880096189051187,49.95291556462072 L 10.910326902855132,50.03740475149564 L 10.948693435995464,50.118523971725324 L 10.994826297784766,50.195492002874694 L 11.048281203545184,50.267567600728725 L 11.108543353312903,50.33405663787967 L 11.175032389642881,50.394318788552994 L 11.247107986768832,50.44777369529526 L 11.324076017289716,50.493906558132956 L 11.405195236996859,50.5322730923783 L 11.489684423459996,50.56250380733314 L 11.576729899626965,50.58430756468666 L 11.665493369978693,50.59747438233647 L 11.755119993772116,50.60187745663082 L 11.844746617625768,50.597474383557326 L 11.93351008815669,50.584307567116646 L 12.02055556462076,50.562503810948805 L 12.105044751495631,50.53227309714487 L 12.186163971725275,50.49390656400456 L 12.263132002874617,50.44777370221529 L 12.3352076007287,50.39431879645484 L 12.401696637879628,50.33405664668714 L 12.461958788553032,50.26756761035708 L 12.51541369529529,50.195492013231124 L 12.561546558132983,50.11852398271023 L 12.59991309237831,50.03740476300314 L 12.630143807333125,49.952915576540036 L 12.651947564686663,49.865870100373016 L 12.665114382336453,49.77710663002143 L 12.669517456936768,49.68748 z"/>
			<path fill-rule="evenodd" fill="#66cc99" stroke="#555555" stroke-width="0.02" opacity="0.6" d="M 20.716242540000007,51.77154746 L 22.143717453764733,51.77154746 L 22.14371745999999,50.14341254623535 L 20.716242546235378,50.143412540000014 L 20.716242540000007,51.77154746 z"/>
			<path fill-rule="evenodd" fill="#66cc99" stroke="#555555" stroke-width="0.02" opacity="0.6" d="M 26.741117456936774,45.14087999999999 L 26.736714383557334,45.05125338237429 L 26.723547567116643,44.96248991184335 L 26.701743810948802,44.87544443537924 L 26.671513097144896,44.79095524850444 L 26.63314656400454,44.70983602827469 L 26.587013702215298,44.632867997125395 L 26.533558796454855,44.56079239927133 L 26.473296646687057,44.494303362120284 L 26.40680761035713,44.43404121144702 L 26.334732013231164,44.380586304704735 L 26.25776398271028,44.33445344186705 L 26.176644763003203,44.29608690762173 L 26.092155576539994,44.26585619266686 L 26.005110100373077,44.24405243531335 L 25.916346630021316,44.23088561766353 L 25.82672000622788,44.22648254336919 L 25.73709338237424,44.23088561644268 L 25.64832991184335,44.24405243288336 L 25.56128443537924,44.2658561890512 L 25.47679524850444,44.29608690285511 L 25.395676028274668,44.33445343599547 L 25.31870799712542,44.380586297784696 L 25.24663239927131,44.43404120354516 L 25.180143362120383,44.49430335331286 L 25.119881211446973,44.56079238964291 L 25.066426304704702,44.632867986768886 L 25.02029344186701,44.70983601728978 L 24.981926907621702,44.79095523699685 L 24.951696192666887,44.87544442345993 L 24.92989243531333,44.96248989962702 L 24.916725617663552,45.05125336997855 L 24.91232254336919,45.14087999377218 L 24.91672561644268,45.230506617625736 L 24.929892432883353,45.319270088156635 L 24.95169618905119,45.40631556462071 L 24.981926902855125,45.49080475149561 L 25.02029343599546,45.57192397172531 L 25.066426297784773,45.6488920028747 L 25.119881203545187,45.72096760072873 L 25.180143353312907,45.787456637879664 L 25.246632389642876,45.84771878855298 L 25.318707986768782,45.90117369529522 L 25.395676017289798,45.947306558133 L 25.4767952369968,45.98567309237827 L 25.561284423460013,46.01590380733314 L 25.64832989962693,46.03770756468665 L 25.73709336997869,46.050874382336474 L 25.826719993772123,46.05527745663082 L 25.916346617625763,46.05087438355733 L 26.005110088156655,46.03770756711664 L 26.092155564620768,46.01590381094881 L 26.17664475149556,45.9856730971449 L 26.257763971725314,45.94730656400454 L 26.334732002874603,45.901173702215296 L 26.406807600728676,45.847718796454856 L 26.473296637879717,45.78745664668706 L 26.533558788552988,45.72096761035713 L 26.58701369529526,45.64889201323117 L 26.633146558132953,45.57192398271028 L 26.671513092378273,45.490804763003204 L 26.70174380733314,45.406315576539996 L 26.72354756468665,45.31927010037308 L 26.736714382336473,45.23050663002132 L 26.741117456936774,45.14087999999999 z"/>
			<path fill-rule="evenodd" fill="#66cc99" stroke="#555555" stroke-width="0.02" opacity="0.6" d="M 33.240977456936776,45.14087999999999 L 33.23657438355733,45.05125338237429 L 33.223407567116645,44.96248991184335 L 33.201603810948804,44.87544443537924 L 33.171373097144894,44.79095524850444 L 33.13300656400454,44.70983602827469 L 33.0868737022153,44.632867997125395 L 33.03341879645485,44.56079239927133 L 32.97315664668706,44.494303362120284 L 32.90666761035713,44.43404121144702 L 32.834592013231166,44.380586304704735 L 32.75762398271028,44.33445344186705 L 32.6765047630032,44.29608690762173 L 32.59201557653999,44.26585619266686 L 32.50497010037308,44.24405243531335 L 32.416206630021314,44.23088561766353 L 32.32658000622788,44.22648254336919 L 32.23695338237424,44.23088561644268 L 32.14818991184335,44.24405243288336 L 32.06114443537924,44.2658561890512 L 31.97665524850444,44.29608690285511 L 31.89553602827469,44.334453435995464 L 31.8185679971254,44.3805862977847 L 31.74649239927133,44.43404120354515 L 31.680003362120285,44.494303353312944 L 31.619741211447018,44.56079238964287 L 31.56628630470474,44.63286798676884 L 31.520153441867052,44.70983601728972 L 31.481786907621732,44.7909552369968 L 31.451556192666864,44.87544442346001 L 31.429752435313354,44.962489899626924 L 31.416585617663532,45.05125336997869 L 31.412182543369187,45.140879993772124 L 31.416585616442678,45.230506617625764 L 31.42975243288336,45.31927008815665 L 31.451556189051203,45.40631556462076 L 31.48178690285511,45.49080475149556 L 31.520153435995464,45.57192397172531 L 31.566286297784707,45.648892002874604 L 31.61974120354515,45.72096760072868 L 31.680003353312948,45.78745663787972 L 31.746492389642874,45.84771878855298 L 31.81856798676884,45.90117369529526 L 31.895536017289725,45.94730655813295 L 31.976655236996802,45.98567309237827 L 32.061144423460014,46.01590380733314 L 32.14818989962693,46.03770756468665 L 32.23695336997869,46.050874382336474 L 32.32657999377212,46.05527745663082 L 32.41620661762576,46.05087438355733 L 32.504970088156654,46.03770756711664 L 32.592015564620766,46.01590381094881 L 32.67650475149556,45.9856730971449 L 32.757623971725316,45.94730656400454 L 32.8345920028746,45.901173702215296 L 32.906667600728674,45.847718796454856 L 32.97315663787972,45.78745664668706 L 33.033418788552986,45.72096761035713 L 33.08687369529526,45.64889201323117 L 33.133006558132955,45.57192398271028 L 33.171373092378275,45.490804763003204 L 33.20160380733314,45.406315576539996 L 33.22340756468665,45.31927010037308 L 33.23657438233647,45.23050663002132 L 33.240977456936776,45.14087999999999 z"/>
			<path fill-rule="evenodd" fill="#66cc99" stroke="#555555" stroke-width="0.02" opacity="0.6" d="M 12.669517456936768,45.1866 L 12.665114383557325,45.096973382374266 L 12.651947567116647,45.00820991184335 L 12.630143810948814,44.92116443537929 L 12.599913097144869,44.83667524850436 L 12.561546564004537,44.755556028274675 L 12.515413702215234,44.678587997125305 L 12.461958796454816,44.606512399271274 L 12.401696646687098,44.54002336212034 L 12.33520761035712,44.479761211447006 L 12.26313201323117,44.42630630470474 L 12.186163982710285,44.38017344186705 L 12.105044763003143,44.3418069076217 L 12.020555576540003,44.31157619266687 L 11.933510100373034,44.28977243531334 L 11.844746630021309,44.27660561766353 L 11.755120006227884,44.27220254336918 L 11.665493382374232,44.27660561644267 L 11.57672991184331,44.28977243288337 L 11.489684435379239,44.311576189051195 L 11.405195248504368,44.34180690285513 L 11.324076028274725,44.380173435995445 L 11.247107997125381,44.42630629778471 L 11.1750323992713,44.479761203545166 L 11.108543362120372,44.54002335331287 L 11.048281211446966,44.60651238964292 L 10.994826304704707,44.67858798676888 L 10.948693441867015,44.75555601728978 L 10.91032690762169,44.836675236996875 L 10.880096192666874,44.92116442345997 L 10.858292435313338,45.008209899627 L 10.845125617663546,45.09697336997858 L 10.840722543369186,45.1865999937722 L 10.845125616442676,45.27622661762574 L 10.858292432883353,45.36499008815665 L 10.880096189051187,45.452035564620715 L 10.910326902855132,45.53652475149564 L 10.948693435995464,45.61764397172532 L 10.994826297784766,45.6946120028747 L 11.048281203545184,45.76668760072872 L 11.108543353312903,45.83317663787967 L 11.175032389642881,45.893438788553 L 11.247107986768832,45.946893695295266 L 11.324076017289716,45.993026558132954 L 11.405195236996859,46.0313930923783 L 11.489684423459996,46.061623807333135 L 11.576729899626965,46.08342756468666 L 11.665493369978693,46.09659438233647 L 11.755119993772116,46.100997456630814 L 11.844746617625768,46.096594383557324 L 11.93351008815669,46.083427567116644 L 12.02055556462076,46.0616238109488 L 12.105044751495631,46.03139309714487 L 12.186163971725275,45.993026564004566 L 12.263132002874617,45.946893702215284 L 12.3352076007287,45.89343879645484 L 12.401696637879628,45.83317664668714 L 12.461958788553032,45.766687610357074 L 12.51541369529529,45.69461201323112 L 12.561546558132983,45.61764398271023 L 12.59991309237831,45.536524763003136 L 12.630143807333125,45.452035576540034 L 12.651947564686663,45.364990100373014 L 12.665114382336453,45.27622663002143 L 12.669517456936768,45.1866 z"/>
			<path fill-rule="evenodd" fill="#66cc99" stroke="#555555" stroke-width="0.02" opacity="0.6" d="M 22.838412539999997,45.79874254000001 L 22.838412539999997,47.226217453764654 L 24.466547453764623,47.22621745999999 L 24.46654745999999,45.798742546235346 L 22.838412539999997,45.79874254000001 z"/>
			<path fill-rule="evenodd" fill="#66cc99" stroke="#555555" stroke-width="0.02" opacity="0.6" d="M 20.298412539999998,45.79874254000001 L 20.298412539999998,47.226217453764654 L 21.926547453764623,47.22621745999999 L 21.92654745999999,45.798742546235346 L 20.298412539999998,45.79874254000001 z"/>
			<path fill-rule="evenodd" fill="#66cc99" stroke="#555555" stroke-width="0.02" opacity="0.6" d="M 19.169377456936772,45.18659999999999 L 19.164974383557322,45.096973382374266 L 19.15180756711665,45.008209911843366 L 19.13000381094881,44.92116443537929 L 19.099773097144876,44.83667524850439 L 19.061406564004542,44.75555602827469 L 19.01527370221523,44.6785879971253 L 18.961818796454814,44.606512399271274 L 18.901556646687094,44.54002336212034 L 18.835067610357125,44.47976121144702 L 18.76299201323122,44.42630630470478 L 18.686023982710203,44.380173441867 L 18.604904763003205,44.34180690762173 L 18.520415576540024,44.31157619266687 L 18.433370100373036,44.28977243531334 L 18.344606630021307,44.27660561766353 L 18.254980006227886,44.27220254336918 L 18.165353382374228,44.27660561644267 L 18.076589911843314,44.28977243288337 L 17.98954443537925,44.31157618905119 L 17.905055248504425,44.34180690285511 L 17.823936028274662,44.380173435995474 L 17.746967997125417,44.42630629778469 L 17.674892399271307,44.47976120354516 L 17.60840336212038,44.54002335331286 L 17.54814121144697,44.606512389642916 L 17.4946863047047,44.67858798676889 L 17.44855344186701,44.755556017289784 L 17.4101869076217,44.83667523699685 L 17.379956192666885,44.921164423459935 L 17.35815243531333,45.008209899627026 L 17.344985617663546,45.09697336997855 L 17.340582543369187,45.18659999377218 L 17.344985616442678,45.27622661762574 L 17.35815243288335,45.36499008815664 L 17.379956189051185,45.452035564620715 L 17.410186902855123,45.53652475149561 L 17.448553435995453,45.617643971725315 L 17.494686297784767,45.6946120028747 L 17.548141203545185,45.76668760072872 L 17.6084033533129,45.83317663787966 L 17.67489238964287,45.893438788552984 L 17.74696798676878,45.94689369529522 L 17.823936017289796,45.993026558132996 L 17.905055236996795,46.03139309237827 L 17.989544423459975,46.06162380733313 L 18.076589899626963,46.08342756468666 L 18.165353369978693,46.09659438233647 L 18.254979993772114,46.100997456630814 L 18.344606617625768,46.096594383557324 L 18.433370088156682,46.083427567116644 L 18.520415564620745,46.06162381094881 L 18.604904751495567,46.03139309714489 L 18.68602397172533,45.99302656400454 L 18.762992002874583,45.946893702215306 L 18.83506760072869,45.893438796454845 L 18.90155663787962,45.83317664668714 L 18.961818788553025,45.76668761035709 L 19.015273695295296,45.69461201323112 L 19.061406558132987,45.61764398271022 L 19.099773092378296,45.53652476300316 L 19.13000380733311,45.45203557654008 L 19.151807564686667,45.364990100372985 L 19.16497438233645,45.27622663002146 L 19.169377456936772,45.18659999999999 z"/>
		</g>
	</g>
	 
</svg>
