M48
INCH
T01C0.0191
T02C0.0315
T03C0.0354
T04C0.0394
T05C0.0433
T06C0.065
T07C0.07
%
T01
X+011562Y+020687
X+011562Y+022687
X+006312Y+018937
X+005562Y+018937
X+004437Y+017062
X+006312Y+016562
X+006812Y+016812
X+006812Y+013437
X+004437Y+012437
T02
X+011831Y+012206
X+011831Y+011418
X+011437Y+016312
X+012224Y+016312
T03
X+006315Y+010562
X+004937Y+010562
X+010437Y+013812
X+011437Y+013812
X+012437Y+013812
X+010161Y+021437
X+009161Y+021437
X+009161Y+022437
X+010161Y+022437
X+008161Y+022437
X+007161Y+022437
X+007161Y+021437
X+008161Y+021437
T04
X+012727Y+019543
X+012727Y+017772
X+010168Y+017772
X+010168Y+019543
X+007187Y+019562
X+007187Y+017790
X+004628Y+017790
X+004628Y+019562
T05
X+004562Y+020562
X+004562Y+021562
X+004562Y+022562
T06
X+009312Y+009562
X+007872Y+009562
X+011072Y+009562
X+012512Y+009562
T07
X+012562Y+007187
X+011003Y+007187
X+009444Y+007187
X+007885Y+007187
X+006326Y+007187
X+004767Y+007187
T00
M30
