G04 DipTrace 2.4.0.2*
%INESPixelStick.GTS*%
%MOIN*%
%ADD44R,0.0287X0.0483*%
%ADD46R,0.0897X0.133*%
%ADD48R,0.0897X0.0424*%
%ADD50R,0.0562X0.0641*%
%ADD52C,0.072*%
%ADD54R,0.072X0.072*%
%ADD56C,0.13*%
%ADD58C,0.105*%
%ADD60R,0.0641X0.0562*%
%ADD62C,0.0582*%
%ADD64R,0.0582X0.0582*%
%ADD66C,0.0641*%
%ADD68R,0.0641X0.0641*%
%FSLAX44Y44*%
G04*
G70*
G90*
G75*
G01*
%LNTopMask*%
%LPD*%
D68*
X6315Y10562D3*
D66*
X4937D3*
D64*
X11831Y12206D3*
D62*
Y11418D3*
D64*
X11437Y16312D3*
D62*
X12224D3*
D60*
X6313Y15188D3*
Y15936D3*
X11562Y22062D3*
Y21314D3*
D58*
X9312Y9562D3*
X11072D3*
X7872D3*
X12512D3*
D68*
X10437Y13812D3*
D66*
X11437D3*
X12437D3*
X7161Y21437D3*
D68*
Y22437D3*
D66*
X8161Y21437D3*
Y22437D3*
X9161Y21437D3*
Y22437D3*
X10161Y21437D3*
D68*
Y22437D3*
D56*
X12562Y7187D3*
X11003D3*
X9444D3*
X7885D3*
X6326D3*
X4767D3*
D54*
X4562Y20562D3*
D52*
Y21562D3*
Y22562D3*
D60*
X12686Y21313D3*
Y22061D3*
D50*
X5437Y13562D3*
X4689D3*
X8437Y20062D3*
X9185D3*
D60*
X8312Y19060D3*
Y18312D3*
X9312D3*
Y19060D3*
D54*
X12727Y19543D3*
D52*
Y17772D3*
X10168D3*
Y19543D3*
D54*
X7187Y19562D3*
D52*
Y17790D3*
X4628D3*
Y19562D3*
D48*
X7562Y13437D3*
Y12531D3*
Y11626D3*
D46*
X9845Y12531D3*
D48*
X7562Y16812D3*
Y15906D3*
Y15001D3*
D46*
X9845Y15906D3*
D44*
X5312Y16187D3*
X4938D3*
X4564D3*
Y15124D3*
X5312D3*
M02*
